<svg width="363" height="34" viewBox="0 0 363 34" fill="none" xmlns="http://www.w3.org/2000/svg">
	<g opacity="0.75">
		<rect x="16.728" width="18" height="18" transform="rotate(45 16.728 0)" fill="#248FDD" />
		<path d="M46.1211 15.9453C46.1211 16.9401 45.7617 17.724 45.043 18.2969C44.3242 18.8698 43.3242 19.1562 42.043 19.1562C40.6888 19.1562 39.6419 18.9766 38.9023 18.6172V17.2422C39.3867 17.4505 39.9154 17.6146 40.4883 17.7344C41.0664 17.8542 41.6055 17.9141 42.1055 17.9141C42.9596 17.9141 43.6029 17.75 44.0352 17.4219C44.4674 17.0938 44.6836 16.6432 44.6836 16.0703C44.6836 15.6901 44.6055 15.3776 44.4492 15.1328C44.293 14.888 44.0299 14.6589 43.6602 14.4453C43.2956 14.2318 42.7409 13.9896 41.9961 13.7188C40.9388 13.3333 40.1836 12.8802 39.7305 12.3594C39.2773 11.8333 39.0508 11.1562 39.0508 10.3281C39.0508 9.4375 39.3841 8.72917 40.0508 8.20312C40.7227 7.67708 41.6055 7.41406 42.6992 7.41406C43.8398 7.41406 44.8893 7.6276 45.8477 8.05469L45.4023 9.28906C44.4232 8.88281 43.5117 8.67969 42.668 8.67969C41.9909 8.67969 41.4596 8.82552 41.0742 9.11719C40.694 9.40885 40.5039 9.81771 40.5039 10.3438C40.5039 10.7188 40.5768 11.0312 40.7227 11.2812C40.8737 11.526 41.1133 11.75 41.4414 11.9531C41.7747 12.1562 42.2956 12.388 43.0039 12.6484C43.8529 12.9609 44.4857 13.2656 44.9023 13.5625C45.319 13.8542 45.6263 14.1927 45.8242 14.5781C46.0221 14.9583 46.1211 15.4141 46.1211 15.9453ZM51.8789 19.1562C50.5924 19.1562 49.582 18.7682 48.8477 17.9922C48.1185 17.2109 47.7539 16.138 47.7539 14.7734C47.7539 13.3984 48.0951 12.3047 48.7773 11.4922C49.4596 10.6745 50.3815 10.2656 51.543 10.2656C52.6211 10.2656 53.4805 10.6146 54.1211 11.3125C54.7617 12.0052 55.082 12.9453 55.082 14.1328V14.9844H49.207C49.2331 15.9583 49.4805 16.6979 49.9492 17.2031C50.418 17.7083 51.082 17.9609 51.9414 17.9609C52.3997 17.9609 52.8346 17.9219 53.2461 17.8438C53.6576 17.7604 54.1393 17.6016 54.6914 17.3672V18.6016C54.2174 18.8047 53.7721 18.9479 53.3555 19.0312C52.9388 19.1146 52.4466 19.1562 51.8789 19.1562ZM51.5273 11.4141C50.8555 11.4141 50.3242 11.6302 49.9336 12.0625C49.543 12.4948 49.3112 13.0964 49.2383 13.8672H53.6055C53.5951 13.0651 53.4102 12.4557 53.0508 12.0391C52.6914 11.6224 52.1836 11.4141 51.5273 11.4141ZM61.2617 10.2656C61.6419 10.2656 61.9779 10.2969 62.2695 10.3594L62.0977 11.6562C61.7799 11.5833 61.4701 11.5469 61.168 11.5469C60.7148 11.5469 60.293 11.6719 59.9023 11.9219C59.5169 12.1719 59.2148 12.5182 58.9961 12.9609C58.7773 13.3984 58.668 13.8854 58.668 14.4219V19H57.2617V10.4219H58.418L58.5742 11.9922H58.6367C58.9648 11.4245 59.3529 10.9948 59.8008 10.7031C60.2487 10.4115 60.7357 10.2656 61.2617 10.2656ZM65.7617 19L62.5117 10.4219H64.0195L65.8398 15.4766C66.1992 16.4922 66.4284 17.25 66.5273 17.75H66.5898C66.6055 17.6823 66.6237 17.6068 66.6445 17.5234C66.6706 17.4349 66.6992 17.3411 66.7305 17.2422C66.7617 17.138 66.9544 16.5495 67.3086 15.4766L69.1367 10.4219H70.6367L67.3789 19H65.7617ZM73.4023 19H71.9961V10.4219H73.4023V19ZM71.8867 8.10156C71.8867 7.78906 71.9648 7.5625 72.1211 7.42188C72.2826 7.28125 72.4805 7.21094 72.7148 7.21094C72.9336 7.21094 73.1237 7.28125 73.2852 7.42188C73.4518 7.5625 73.5352 7.78906 73.5352 8.10156C73.5352 8.40885 73.4518 8.63542 73.2852 8.78125C73.1237 8.92708 72.9336 9 72.7148 9C72.4805 9 72.2826 8.92708 72.1211 8.78125C71.9648 8.63542 71.8867 8.40885 71.8867 8.10156ZM79.5586 19.1562C78.3242 19.1562 77.3633 18.7786 76.6758 18.0234C75.9883 17.263 75.6445 16.1745 75.6445 14.7578C75.6445 13.3203 75.9909 12.2135 76.6836 11.4375C77.3815 10.6562 78.3737 10.2656 79.6602 10.2656C80.0768 10.2656 80.4883 10.3099 80.8945 10.3984C81.306 10.4818 81.6445 10.5911 81.9102 10.7266L81.4805 11.8984C80.7565 11.6276 80.1393 11.4922 79.6289 11.4922C78.7643 11.4922 78.1263 11.7656 77.7148 12.3125C77.3034 12.8542 77.0977 13.6641 77.0977 14.7422C77.0977 15.7786 77.3034 16.5729 77.7148 17.125C78.1263 17.6719 78.7357 17.9453 79.543 17.9453C80.2982 17.9453 81.0404 17.7786 81.7695 17.4453V18.6953C81.1758 19.0026 80.4388 19.1562 79.5586 19.1562ZM87.457 19.1562C86.1706 19.1562 85.1602 18.7682 84.4258 17.9922C83.6966 17.2109 83.332 16.138 83.332 14.7734C83.332 13.3984 83.6732 12.3047 84.3555 11.4922C85.0378 10.6745 85.9596 10.2656 87.1211 10.2656C88.1992 10.2656 89.0586 10.6146 89.6992 11.3125C90.3398 12.0052 90.6602 12.9453 90.6602 14.1328V14.9844H84.7852C84.8112 15.9583 85.0586 16.6979 85.5273 17.2031C85.9961 17.7083 86.6602 17.9609 87.5195 17.9609C87.9779 17.9609 88.4128 17.9219 88.8242 17.8438C89.2357 17.7604 89.7174 17.6016 90.2695 17.3672V18.6016C89.7956 18.8047 89.3503 18.9479 88.9336 19.0312C88.5169 19.1146 88.0247 19.1562 87.457 19.1562ZM87.1055 11.4141C86.4336 11.4141 85.9023 11.6302 85.5117 12.0625C85.1211 12.4948 84.8893 13.0964 84.8164 13.8672H89.1836C89.1732 13.0651 88.9883 12.4557 88.6289 12.0391C88.2695 11.6224 87.7617 11.4141 87.1055 11.4141Z" fill="white" />
		<path d="M161.59 23C167.389 23 172.09 18.5229 172.09 13C172.09 7.47715 167.389 3 161.59 3C155.791 3 151.09 7.47715 151.09 13C151.09 18.5229 155.791 23 161.59 23Z" fill="#248FDD" />
		<path d="M192.957 10.9375C192.957 12.1042 192.559 13 191.762 13.625C190.965 14.2448 189.842 14.5547 188.395 14.5547H187.082V19H185.645V7.57812H188.668C191.527 7.57812 192.957 8.69792 192.957 10.9375ZM187.082 13.3203H188.23C189.366 13.3203 190.189 13.138 190.699 12.7734C191.21 12.4036 191.465 11.8125 191.465 11C191.465 10.2656 191.228 9.71615 190.754 9.35156C190.28 8.98698 189.54 8.80469 188.535 8.80469H187.082V13.3203ZM198.785 19.1562C197.499 19.1562 196.488 18.7682 195.754 17.9922C195.025 17.2109 194.66 16.138 194.66 14.7734C194.66 13.3984 195.001 12.3047 195.684 11.4922C196.366 10.6745 197.288 10.2656 198.449 10.2656C199.527 10.2656 200.387 10.6146 201.027 11.3125C201.668 12.0052 201.988 12.9453 201.988 14.1328V14.9844H196.113C196.139 15.9583 196.387 16.6979 196.855 17.2031C197.324 17.7083 197.988 17.9609 198.848 17.9609C199.306 17.9609 199.741 17.9219 200.152 17.8438C200.564 17.7604 201.046 17.6016 201.598 17.3672V18.6016C201.124 18.8047 200.678 18.9479 200.262 19.0312C199.845 19.1146 199.353 19.1562 198.785 19.1562ZM198.434 11.4141C197.762 11.4141 197.23 11.6302 196.84 12.0625C196.449 12.4948 196.217 13.0964 196.145 13.8672H200.512C200.501 13.0651 200.316 12.4557 199.957 12.0391C199.598 11.6224 199.09 11.4141 198.434 11.4141ZM207.816 19.1562C206.53 19.1562 205.52 18.7682 204.785 17.9922C204.056 17.2109 203.691 16.138 203.691 14.7734C203.691 13.3984 204.033 12.3047 204.715 11.4922C205.397 10.6745 206.319 10.2656 207.48 10.2656C208.559 10.2656 209.418 10.6146 210.059 11.3125C210.699 12.0052 211.02 12.9453 211.02 14.1328V14.9844H205.145C205.171 15.9583 205.418 16.6979 205.887 17.2031C206.355 17.7083 207.02 17.9609 207.879 17.9609C208.337 17.9609 208.772 17.9219 209.184 17.8438C209.595 17.7604 210.077 17.6016 210.629 17.3672V18.6016C210.155 18.8047 209.71 18.9479 209.293 19.0312C208.876 19.1146 208.384 19.1562 207.816 19.1562ZM207.465 11.4141C206.793 11.4141 206.262 11.6302 205.871 12.0625C205.48 12.4948 205.249 13.0964 205.176 13.8672H209.543C209.533 13.0651 209.348 12.4557 208.988 12.0391C208.629 11.6224 208.121 11.4141 207.465 11.4141ZM217.199 10.2656C217.579 10.2656 217.915 10.2969 218.207 10.3594L218.035 11.6562C217.717 11.5833 217.408 11.5469 217.105 11.5469C216.652 11.5469 216.23 11.6719 215.84 11.9219C215.454 12.1719 215.152 12.5182 214.934 12.9609C214.715 13.3984 214.605 13.8854 214.605 14.4219V19H213.199V10.4219H214.355L214.512 11.9922H214.574C214.902 11.4245 215.29 10.9948 215.738 10.7031C216.186 10.4115 216.673 10.2656 217.199 10.2656Z" fill="white" />
		<path d="M279.09 11L287.09 19L299.09 7" stroke="#248FDD" stroke-width="2" />
		<path d="M311.09 7.57812H312.598L315.168 14.9062C315.496 15.8333 315.736 16.6641 315.887 17.3984C316.017 16.7422 316.259 15.901 316.613 14.875L319.168 7.57812H320.691L316.613 19H315.168L311.09 7.57812ZM323.465 19H322.059V10.4219H323.465V19ZM321.949 8.10156C321.949 7.78906 322.027 7.5625 322.184 7.42188C322.345 7.28125 322.543 7.21094 322.777 7.21094C322.996 7.21094 323.186 7.28125 323.348 7.42188C323.514 7.5625 323.598 7.78906 323.598 8.10156C323.598 8.40885 323.514 8.63542 323.348 8.78125C323.186 8.92708 322.996 9 322.777 9C322.543 9 322.345 8.92708 322.184 8.78125C322.027 8.63542 321.949 8.40885 321.949 8.10156ZM331.77 16.6328C331.77 17.4349 331.47 18.0573 330.871 18.5C330.272 18.9375 329.431 19.1562 328.348 19.1562C327.217 19.1562 326.319 18.9766 325.652 18.6172V17.3359C326.595 17.7943 327.504 18.0234 328.379 18.0234C329.087 18.0234 329.603 17.9089 329.926 17.6797C330.249 17.4505 330.41 17.1432 330.41 16.7578C330.41 16.4193 330.254 16.1328 329.941 15.8984C329.634 15.6641 329.085 15.3958 328.293 15.0938C327.486 14.7812 326.918 14.5156 326.59 14.2969C326.262 14.0729 326.02 13.8229 325.863 13.5469C325.712 13.2708 325.637 12.9349 325.637 12.5391C325.637 11.8359 325.923 11.2812 326.496 10.875C327.069 10.4688 327.855 10.2656 328.855 10.2656C329.829 10.2656 330.741 10.4583 331.59 10.8438L331.113 11.9609C330.243 11.5964 329.46 11.4141 328.762 11.4141C328.178 11.4141 327.736 11.5078 327.434 11.6953C327.132 11.8776 326.98 12.1302 326.98 12.4531C326.98 12.7656 327.111 13.026 327.371 13.2344C327.632 13.4375 328.238 13.7214 329.191 14.0859C329.905 14.3516 330.431 14.599 330.77 14.8281C331.113 15.0573 331.366 15.3151 331.527 15.6016C331.689 15.888 331.77 16.2318 331.77 16.6328ZM335.262 19H333.855V10.4219H335.262V19ZM333.746 8.10156C333.746 7.78906 333.824 7.5625 333.98 7.42188C334.142 7.28125 334.34 7.21094 334.574 7.21094C334.793 7.21094 334.983 7.28125 335.145 7.42188C335.311 7.5625 335.395 7.78906 335.395 8.10156C335.395 8.40885 335.311 8.63542 335.145 8.78125C334.983 8.92708 334.793 9 334.574 9C334.34 9 334.142 8.92708 333.98 8.78125C333.824 8.63542 333.746 8.40885 333.746 8.10156ZM340.848 18.0078C341.03 18.0078 341.243 17.9896 341.488 17.9531C341.733 17.9167 341.918 17.875 342.043 17.8281V18.9062C341.913 18.9635 341.71 19.0182 341.434 19.0703C341.163 19.1276 340.887 19.1562 340.605 19.1562C338.928 19.1562 338.09 18.2734 338.09 16.5078V11.5156H336.879V10.8438L338.105 10.2812L338.668 8.45312H339.504V10.4219H341.98V11.5156H339.504V16.4688C339.504 16.9635 339.621 17.3438 339.855 17.6094C340.095 17.875 340.426 18.0078 340.848 18.0078ZM347.41 19.1562C346.124 19.1562 345.113 18.7682 344.379 17.9922C343.65 17.2109 343.285 16.138 343.285 14.7734C343.285 13.3984 343.626 12.3047 344.309 11.4922C344.991 10.6745 345.913 10.2656 347.074 10.2656C348.152 10.2656 349.012 10.6146 349.652 11.3125C350.293 12.0052 350.613 12.9453 350.613 14.1328V14.9844H344.738C344.764 15.9583 345.012 16.6979 345.48 17.2031C345.949 17.7083 346.613 17.9609 347.473 17.9609C347.931 17.9609 348.366 17.9219 348.777 17.8438C349.189 17.7604 349.671 17.6016 350.223 17.3672V18.6016C349.749 18.8047 349.303 18.9479 348.887 19.0312C348.47 19.1146 347.978 19.1562 347.41 19.1562ZM347.059 11.4141C346.387 11.4141 345.855 11.6302 345.465 12.0625C345.074 12.4948 344.842 13.0964 344.77 13.8672H349.137C349.126 13.0651 348.941 12.4557 348.582 12.0391C348.223 11.6224 347.715 11.4141 347.059 11.4141ZM355.832 19.1562C354.717 19.1562 353.853 18.7708 353.238 18C352.624 17.2292 352.316 16.138 352.316 14.7266C352.316 13.3255 352.624 12.2318 353.238 11.4453C353.858 10.6589 354.728 10.2656 355.848 10.2656C356.999 10.2656 357.884 10.6875 358.504 11.5312H358.605C358.59 11.4271 358.569 11.2188 358.543 10.9062C358.517 10.5885 358.504 10.375 358.504 10.2656V6.84375H359.91V19H358.777L358.566 17.8516H358.504C357.905 18.7214 357.014 19.1562 355.832 19.1562ZM356.059 17.9922C356.913 17.9922 357.535 17.7604 357.926 17.2969C358.322 16.8281 358.52 16.0625 358.52 15V14.7422C358.52 13.5495 358.319 12.7005 357.918 12.1953C357.522 11.6849 356.897 11.4297 356.043 11.4297C355.319 11.4297 354.759 11.7188 354.363 12.2969C353.967 12.8698 353.77 13.6901 353.77 14.7578C353.77 15.8203 353.965 16.625 354.355 17.1719C354.751 17.7188 355.319 17.9922 356.059 17.9922Z" fill="white" />
	</g>
</svg>
