<svg width="332" height="147" viewBox="0 0 332 147" fill="none" xmlns="http://www.w3.org/2000/svg">
<g clip-path="url(#clip0)">
<path d="M10.6377 88.665L78.0126 106.538L327.34 113.831" stroke="white" stroke-miterlimit="10"/>
<path d="M18.1147 61.8037L81.2336 79.5953L328.158 87.2013" stroke="white" stroke-width="4" stroke-miterlimit="10"/>
<path d="M67.4688 136.997L68.64 61.8036L73.6192 48.5508L82.9908 52.9438L329.888 58.5088" stroke="white" stroke-miterlimit="10"/>
<path d="M21.8032 48.5508L68.64 61.8036" stroke="white" stroke-miterlimit="10"/>
<path d="M253.003 1.76562L248.768 143.178" stroke="white" stroke-miterlimit="10"/>
<path d="M291.185 3.67578L288.3 143.178" stroke="white" stroke-miterlimit="10"/>
<path d="M326.806 131.162L177.591 127.625" stroke="white" stroke-miterlimit="10"/>
<path d="M166.022 26.501L161.803 140.916" stroke="white" stroke-width="2" stroke-miterlimit="10"/>
<path d="M198.679 28.8105L209.959 143.178" stroke="white" stroke-miterlimit="10"/>
<path d="M147.717 26.001L146.615 140.52" stroke="white" stroke-miterlimit="10"/>
<path d="M111.693 36.3242L108.386 139.525" stroke="white" stroke-miterlimit="10"/>
<path d="M67.4688 124.55L147.167 126.527" stroke="white" stroke-miterlimit="10"/>
<path d="M14 76.584L67.4687 92.4436L147.051 95.1532" stroke="white" stroke-miterlimit="10"/>
<path d="M82.9907 52.9443V66.5626L147.314 67.8787" stroke="white" stroke-miterlimit="10"/>
<path d="M111.548 40.8516H147.718" stroke="white" stroke-miterlimit="10"/>
<path d="M180.227 27.3184V55.1304" stroke="white" stroke-miterlimit="10"/>
<path d="M329.47 44.5935L180.227 40.8516" stroke="white" stroke-miterlimit="10"/>
<path d="M183.522 55.1309L183.742 67.8784" stroke="white" stroke-miterlimit="10"/>
<path d="M202.684 69.4131L249.649 70.7354" stroke="white" stroke-miterlimit="10"/>
<path d="M290.643 71.834L328.612 72.4762" stroke="white" stroke-miterlimit="10"/>
<path d="M7.35498 105.074L48.4314 116.642L40.231 131.162" stroke="white" stroke-miterlimit="10"/>
<path d="M178.47 82.5908L177.591 141.327" stroke="white" stroke-miterlimit="10"/>
<path d="M327.745 100.644L178.262 96.5439" stroke="white" stroke-miterlimit="10"/>
<path d="M198.679 27.3936L329.889 30.9791" stroke="white" stroke-miterlimit="10"/>
<path d="M303.031 8.82812L301.934 30.2158" stroke="white" stroke-miterlimit="10"/>
<path d="M291.185 15.823L252.199 15.1641" stroke="white" stroke-miterlimit="10"/>
<path opacity="0.5" d="M25.8795 33.9083L68.9328 44.4514L73.6195 48.551L147.718 26.0009L198.679 27.3935V19.9965L253.003 1.76562L289.471 2.92977L330.207 20.6476L326.374 145.197L67.469 138.461L2.15625 119.132L25.8795 33.9083Z" fill="white"/>
<path d="M25.8795 33.9083L68.9328 44.4514L73.6195 48.551L147.718 26.0009L198.679 27.3935V19.9965L253.003 1.76562L289.471 2.92977L330.207 20.6476L326.374 145.197L67.469 138.461L2.15625 119.132L25.8795 33.9083Z" stroke="white" stroke-width="4" stroke-miterlimit="10"/>
<path d="M234.703 115.275C236.967 115.275 238.803 113.439 238.803 111.175C238.803 108.911 236.967 107.075 234.703 107.075C232.439 107.075 230.603 108.911 230.603 111.175C230.603 113.439 232.439 115.275 234.703 115.275Z" fill="white"/>
<path d="M51.5304 97.6439C51.5304 101.62 48.3069 104.844 44.3304 104.844C40.3539 104.844 37.1304 101.62 37.1304 97.6439C37.1304 93.6678 40.3539 90.4443 44.3304 90.4443C48.3069 90.4443 51.5304 93.6678 51.5304 97.6439Z" fill="#248FDD" stroke="#248FDD" stroke-width="2"/>
<path d="M293.744 57.0448C293.744 58.757 292.356 60.1452 290.643 60.1452C288.931 60.1452 287.542 58.757 287.542 57.0448C287.542 55.3325 288.931 53.9443 290.643 53.9443C292.356 53.9443 293.744 55.3325 293.744 57.0448Z" fill="white" stroke="white" stroke-width="2"/>
<path d="M131.195 107.711C131.195 109.423 129.807 110.811 128.095 110.811C126.382 110.811 124.994 109.423 124.994 107.711C124.994 105.998 126.382 104.61 128.095 104.61C129.807 104.61 131.195 105.999 131.195 107.711Z" fill="white" stroke="white" stroke-width="2"/>
<path d="M150.818 108.59C150.818 110.302 149.43 111.69 147.717 111.69C146.005 111.69 144.617 110.302 144.617 108.59C144.617 106.877 146.005 105.489 147.717 105.489C149.43 105.489 150.818 106.877 150.818 108.59Z" fill="white" stroke="white" stroke-width="2"/>
<path d="M70.5694 103.61C70.5694 105.322 69.1812 106.711 67.4688 106.711C65.7563 106.711 64.3682 105.322 64.3682 103.61C64.3682 101.898 65.7563 100.51 67.4688 100.51C69.1812 100.51 70.5694 101.898 70.5694 103.61Z" fill="white" stroke="white" stroke-width="2"/>
<path d="M225.21 27.3192C225.21 29.0314 223.822 30.4196 222.109 30.4196C220.397 30.4196 219.009 29.0314 219.009 27.3192C219.009 25.6069 220.397 24.2188 222.109 24.2188C223.822 24.2188 225.21 25.6069 225.21 27.3192Z" fill="white" stroke="white" stroke-width="2"/>
<path d="M293.744 36.325C293.744 38.0373 292.356 39.4254 290.643 39.4254C288.931 39.4254 287.542 38.0373 287.542 36.325C287.542 34.6128 288.931 33.2246 290.643 33.2246C292.356 33.2246 293.744 34.6128 293.744 36.325Z" fill="white" stroke="white" stroke-width="2"/>
<path d="M313.733 50.3826C313.733 52.0949 312.345 53.4831 310.632 53.4831C308.92 53.4831 307.532 52.0949 307.532 50.3826C307.532 48.6704 308.92 47.2822 310.632 47.2822C312.345 47.2822 313.733 48.6704 313.733 50.3826Z" fill="white" stroke="white" stroke-width="2"/>
<path d="M313.733 61.8045C313.733 63.5168 312.345 64.9049 310.632 64.9049C308.92 64.9049 307.532 63.5168 307.532 61.8045C307.532 60.0922 308.92 58.7041 310.632 58.7041C312.345 58.7041 313.733 60.0922 313.733 61.8045Z" fill="white" stroke="white" stroke-width="2"/>
</g>
<defs>
<clipPath id="clip0">
<rect width="332" height="147" fill="white"/>
</clipPath>
</defs>
</svg>
