<svg width="126" height="94" viewBox="0 0 126 94" fill="none" xmlns="http://www.w3.org/2000/svg">
<g opacity="0.5">
<path d="M100.025 25.0055H54.0139C53.2013 19.1083 48.9086 14.5864 43.7615 14.5864C38.6145 14.5864 34.3218 19.1083 33.5091 25.0055H26.0282C25.5287 24.9991 25.0436 25.1723 24.6611 25.4936C24.2786 25.8149 24.0243 26.2629 23.9444 26.7559L19.7767 51.7618L1.29323 58.8468C0.899306 59.0083 0.564313 59.2867 0.33333 59.6443C0.102347 60.002 -0.0135414 60.4218 0.00126013 60.8473V83.3526C0.00126013 83.9052 0.220805 84.4353 0.611598 84.826C1.00239 85.2168 1.53242 85.4364 2.08508 85.4364H12.7126C13.1908 87.7917 14.4687 89.9093 16.3296 91.4302C18.1904 92.9512 20.5199 93.7821 22.9233 93.7821C25.3267 93.7821 27.6562 92.9512 29.5171 91.4302C31.3779 89.9093 32.6558 87.7917 33.134 85.4364H68.9758C69.4541 87.7917 70.7319 89.9093 72.5928 91.4302C74.4537 92.9512 76.7831 93.7821 79.1865 93.7821C81.5899 93.7821 83.9194 92.9512 85.7803 91.4302C87.6412 89.9093 88.919 87.7917 89.3973 85.4364H100.025C100.577 85.4364 101.107 85.2168 101.498 84.826C101.889 84.4353 102.109 83.9052 102.109 83.3526V27.0894C102.109 26.5367 101.889 26.0067 101.498 25.6159C101.107 25.2251 100.577 25.0055 100.025 25.0055ZM43.7615 18.7541C46.6789 18.7541 49.117 21.4214 49.8255 25.0055H37.6976C38.4061 21.4214 40.8442 18.7541 43.7615 18.7541ZM22.9233 89.604C21.6869 89.604 20.4782 89.2374 19.4502 88.5505C18.4221 87.8635 17.6209 86.8872 17.1477 85.7449C16.6745 84.6026 16.5507 83.3456 16.792 82.133C17.0332 80.9203 17.6286 79.8064 18.5029 78.9321C19.3771 78.0578 20.491 77.4624 21.7037 77.2212C22.9164 76.98 24.1733 77.1038 25.3156 77.577C26.458 78.0501 27.4343 78.8514 28.1212 79.8794C28.8081 80.9075 29.1748 82.1161 29.1748 83.3526C29.1748 85.0106 28.5161 86.6006 27.3438 87.773C26.1714 88.9454 24.5813 89.604 22.9233 89.604ZM79.1865 89.604C77.9501 89.604 76.7414 89.2374 75.7134 88.5505C74.6853 87.8635 73.8841 86.8872 73.4109 85.7449C72.9378 84.6026 72.814 83.3456 73.0552 82.133C73.2964 80.9203 73.8918 79.8064 74.7661 78.9321C75.6404 78.0578 76.7543 77.4624 77.9669 77.2212C79.1796 76.98 80.4366 77.1038 81.5789 77.577C82.7212 78.0501 83.6975 78.8514 84.3844 79.8794C85.0714 80.9075 85.438 82.1161 85.438 83.3526C85.438 85.0106 84.7794 86.6006 83.607 87.773C82.4346 88.9454 80.8445 89.604 79.1865 89.604ZM97.9409 81.2687H89.3973C88.919 78.9134 87.6412 76.7959 85.7803 75.2749C83.9194 73.7539 81.5899 72.923 79.1865 72.923C76.7831 72.923 74.4537 73.7539 72.5928 75.2749C70.7319 76.7959 69.4541 78.9134 68.9758 81.2687H33.134C32.6558 78.9134 31.3779 76.7959 29.5171 75.2749C27.6562 73.7539 25.3267 72.923 22.9233 72.923C20.5199 72.923 18.1904 73.7539 16.3296 75.2749C14.4687 76.7959 13.1908 78.9134 12.7126 81.2687H4.16891V62.2851L22.4232 55.2835C22.763 55.1539 23.063 54.9375 23.2933 54.656C23.5236 54.3746 23.6762 54.0377 23.736 53.6789L27.7995 29.1732H97.9409V81.2687Z" fill="white"/>
<path d="M108.361 39.592H122.948C123.501 39.592 124.031 39.3724 124.421 38.9816C124.812 38.5908 125.032 38.0608 125.032 37.5081C125.032 36.9555 124.812 36.4254 124.421 36.0347C124.031 35.6439 123.501 35.4243 122.948 35.4243H108.361C107.809 35.4243 107.278 35.6439 106.888 36.0347C106.497 36.4254 106.277 36.9555 106.277 37.5081C106.277 38.0608 106.497 38.5908 106.888 38.9816C107.278 39.3724 107.809 39.592 108.361 39.592Z" fill="white"/>
<path d="M122.948 56.2632H108.361C107.809 56.2632 107.278 56.4827 106.888 56.8735C106.497 57.2643 106.277 57.7943 106.277 58.347C106.277 58.8997 106.497 59.4297 106.888 59.8205C107.278 60.2113 107.809 60.4308 108.361 60.4308H122.948C123.501 60.4308 124.031 60.2113 124.421 59.8205C124.812 59.4297 125.032 58.8997 125.032 58.347C125.032 57.7943 124.812 57.2643 124.421 56.8735C124.031 56.4827 123.501 56.2632 122.948 56.2632Z" fill="white"/>
<path d="M108.361 50.0114H112.529C113.081 50.0114 113.612 49.7919 114.002 49.4011C114.393 49.0103 114.613 48.4802 114.613 47.9276C114.613 47.3749 114.393 46.8449 114.002 46.4541C113.612 46.0633 113.081 45.8438 112.529 45.8438H108.361C107.809 45.8438 107.278 46.0633 106.888 46.4541C106.497 46.8449 106.277 47.3749 106.277 47.9276C106.277 48.4802 106.497 49.0103 106.888 49.4011C107.278 49.7919 107.809 50.0114 108.361 50.0114Z" fill="white"/>
<path d="M43.7635 10.4191C44.3162 10.4191 44.8462 10.1996 45.237 9.80878C45.6278 9.41798 45.8473 8.88795 45.8473 8.33529V2.08382C45.8473 1.53116 45.6278 1.00113 45.237 0.610338C44.8462 0.219545 44.3162 0 43.7635 0C43.2108 0 42.6808 0.219545 42.29 0.610338C41.8992 1.00113 41.6797 1.53116 41.6797 2.08382V8.33529C41.6797 8.88795 41.8992 9.41798 42.29 9.80878C42.6808 10.1996 43.2108 10.4191 43.7635 10.4191Z" fill="white"/>
<path d="M57.0158 15.9201C57.2915 15.919 57.5643 15.8631 57.8182 15.7558C58.0722 15.6485 58.3023 15.4918 58.4953 15.295L62.913 10.8772C63.2544 10.4786 63.4328 9.96583 63.4125 9.44138C63.3923 8.91693 63.1749 8.41944 62.8038 8.04833C62.4326 7.67721 61.9352 7.4598 61.4107 7.43954C60.8863 7.41929 60.3735 7.59767 59.9748 7.93906L55.5571 12.3568C55.169 12.7472 54.9512 13.2753 54.9512 13.8259C54.9512 14.3764 55.169 14.9045 55.5571 15.295C55.9419 15.6876 56.4662 15.9123 57.0158 15.9201Z" fill="white"/>
<path d="M29.0281 15.295C29.4186 15.6831 29.9467 15.9009 30.4972 15.9009C31.0478 15.9009 31.5759 15.6831 31.9663 15.295C32.3545 14.9045 32.5723 14.3764 32.5723 13.8259C32.5723 13.2753 32.3545 12.7472 31.9663 12.3568L27.5486 7.93906C27.15 7.59767 26.6372 7.41929 26.1128 7.43954C25.5883 7.4598 25.0908 7.67721 24.7197 8.04833C24.3486 8.41944 24.1312 8.91693 24.1109 9.44138C24.0907 9.96583 24.2691 10.4786 24.6104 10.8772L29.0281 15.295Z" fill="white"/>
<path d="M68.7694 50.0122H75.0208V56.2637C75.0208 56.8163 75.2404 57.3464 75.6312 57.7372C76.022 58.128 76.552 58.3475 77.1047 58.3475C77.6573 58.3475 78.1874 58.128 78.5781 57.7372C78.9689 57.3464 79.1885 56.8163 79.1885 56.2637V50.0122H85.44C85.9926 50.0122 86.5226 49.7927 86.9134 49.4019C87.3042 49.0111 87.5238 48.4811 87.5238 47.9284C87.5238 47.3757 87.3042 46.8457 86.9134 46.4549C86.5226 46.0641 85.9926 45.8446 85.44 45.8446H79.1885V39.5931C79.1885 39.0404 78.9689 38.5104 78.5781 38.1196C78.1874 37.7288 77.6573 37.5093 77.1047 37.5093C76.552 37.5093 76.022 37.7288 75.6312 38.1196C75.2404 38.5104 75.0208 39.0404 75.0208 39.5931V45.8446H68.7694C68.2167 45.8446 67.6867 46.0641 67.2959 46.4549C66.9051 46.8457 66.6855 47.3757 66.6855 47.9284C66.6855 48.4811 66.9051 49.0111 67.2959 49.4019C67.6867 49.7927 68.2167 50.0122 68.7694 50.0122Z" fill="white"/>
</g>
</svg>
