<svg width="69" height="64" viewBox="0 0 69 64" fill="none" xmlns="http://www.w3.org/2000/svg">
<path d="M48.96 64H5.2C2.32 64 0 61.68 0 58.8V5.2C0 2.32 2.32 0 5.2 0H48.96C51.84 0 54.16 2.32 54.16 5.2V58.72C54.16 61.68 51.84 64 48.96 64ZM5.2 2.48C3.68 2.48 2.48 3.68 2.48 5.2V58.72C2.48 60.24 3.68 61.44 5.2 61.44H48.96C50.48 61.44 51.68 60.24 51.68 58.72V5.2C51.68 3.68 50.48 2.48 48.96 2.48H5.2Z" fill="white"/>
<path d="M10.4788 18.3996C10.7188 18.6396 11.0388 18.7196 11.3588 18.7196C11.6788 18.7196 11.9988 18.6396 12.2388 18.3996L16.9588 13.6796C17.4388 13.1996 17.4388 12.4796 16.9588 11.9996C16.4788 11.5196 15.7587 11.5196 15.2787 11.9996L11.3588 15.9196L9.75875 14.3996C9.27875 13.9196 8.55875 13.9196 8.07875 14.3996C7.59875 14.8796 7.59875 15.5996 8.07875 16.0796L10.4788 18.3996Z" fill="white"/>
<path d="M15.1988 23.9199L11.2787 27.8399L9.75875 26.3199C9.27875 25.8399 8.55875 25.8399 8.07875 26.3199C7.59875 26.7999 7.59875 27.5199 8.07875 27.9999L10.4788 30.3999C10.7188 30.6399 11.0388 30.7199 11.3588 30.7199C11.6788 30.7199 11.9988 30.6399 12.2388 30.3999L16.9588 25.6799C17.4388 25.1999 17.4388 24.4799 16.9588 23.9999C16.3988 23.4399 15.6788 23.4399 15.1988 23.9199Z" fill="white"/>
<path d="M15.1988 35.7598L11.2787 39.6798L9.75875 38.1598C9.27875 37.6798 8.55875 37.6798 8.07875 38.1598C7.59875 38.6398 7.59875 39.3598 8.07875 39.8398L10.4788 42.2398C10.7188 42.4798 11.0388 42.5598 11.3588 42.5598C11.6788 42.5598 11.9988 42.4798 12.2388 42.2398L16.9588 37.5198C17.4388 37.0398 17.4388 36.3198 16.9588 35.8398C16.3988 35.2798 15.6788 35.2798 15.1988 35.7598Z" fill="white"/>
<path d="M15.1988 47.6807L11.2787 51.6007L9.75875 50.0807C9.27875 49.6007 8.55875 49.6007 8.07875 50.0807C7.59875 50.5607 7.59875 51.2807 8.07875 51.7607L10.4788 54.1607C10.7188 54.4007 11.0388 54.4807 11.3588 54.4807C11.6788 54.4807 11.9988 54.4007 12.2388 54.1607L16.9588 49.4407C17.4388 48.9607 17.4388 48.2407 16.9588 47.7607C16.3988 47.2007 15.6788 47.2007 15.1988 47.6807Z" fill="white"/>
<path d="M47.9992 8.64074H46.1592V6.80074C46.1592 6.24074 45.6792 5.76074 45.1192 5.76074C44.5592 5.76074 44.0792 6.24074 44.0792 6.80074V8.64074H42.2392C41.6792 8.64074 41.1992 9.12074 41.1992 9.68074C41.1992 10.2407 41.6792 10.7207 42.2392 10.7207H44.0792V12.5607C44.0792 13.1207 44.5592 13.6007 45.1192 13.6007C45.6792 13.6007 46.1592 13.1207 46.1592 12.5607V10.7207H47.9992C48.5592 10.7207 49.0392 10.2407 49.0392 9.68074C49.0392 9.12074 48.5592 8.64074 47.9992 8.64074Z" fill="white"/>
<path d="M46.9617 28.4801H24.5617C23.6817 28.4801 22.9617 27.9201 22.8017 27.0401C22.6417 26.0001 23.4417 25.1201 24.4817 25.1201H46.9617C47.8417 25.1201 48.5617 25.6801 48.7217 26.5601C48.8017 27.6001 48.0017 28.4801 46.9617 28.4801Z" fill="white"/>
<path d="M46.9617 40.1598H24.5617C23.6817 40.1598 22.9617 39.5998 22.8017 38.7198C22.6417 37.6798 23.4417 36.7998 24.4817 36.7998H46.9617C47.8417 36.7998 48.5617 37.3598 48.7217 38.2398C48.8017 39.2798 48.0017 40.1598 46.9617 40.1598Z" fill="white"/>
<path d="M46.9617 51.9196H24.5617C23.6817 51.9196 22.9617 51.3596 22.8017 50.4796C22.6417 49.4396 23.4417 48.5596 24.4817 48.5596H46.9617C47.8417 48.5596 48.5617 49.1196 48.7217 49.9996C48.8017 50.9596 48.0017 51.9196 46.9617 51.9196Z" fill="white"/>
<path d="M40.4791 17.5195H24.5591C23.6791 17.5195 23.0391 16.7995 23.0391 15.9995C23.0391 15.1195 23.7591 14.4795 24.5591 14.4795H40.3991C41.2791 14.4795 41.9191 15.1995 41.9191 15.9995C41.9991 16.7995 41.2791 17.5195 40.4791 17.5195Z" fill="white"/>
<path d="M66.6409 6.07963L67.0409 5.03963C67.5209 3.83963 66.4809 2.23963 64.6409 1.67963C63.2009 1.19963 61.8409 1.75963 61.3609 2.79963L60.9609 3.67963L66.6409 6.07963Z" fill="white"/>
<path d="M67.6813 8.95957L65.7613 8.15957L66.3212 6.87957L60.8012 4.55957L50.1612 29.5996C50.0012 29.9196 49.6813 31.3596 49.2812 33.1996L53.8412 35.1196C54.8812 33.3596 55.6812 32.0796 55.7612 31.8396L65.2813 9.43957L66.0012 9.75957L65.9212 9.83957L60.0012 23.7596C59.8412 24.0796 60.0012 24.4796 60.3212 24.6396C60.4012 24.7196 60.5612 24.7196 60.6412 24.7196C60.8812 24.7196 61.1212 24.5596 61.2012 24.3196L67.1212 10.3996C67.1212 10.3196 67.1212 10.3196 67.1212 10.2396C67.2012 10.2396 67.2813 10.3196 67.3613 10.3196C67.6013 10.3196 67.8412 10.1596 67.9212 9.91957C68.1612 9.51957 68.0013 9.11957 67.6813 8.95957Z" fill="white"/>
<path d="M49.1181 34.0801C48.3981 37.7601 47.4381 42.7201 46.9581 45.2001C46.8781 45.5201 47.3581 45.6801 47.5181 45.4401C48.8781 43.2801 51.4381 39.0401 53.4381 35.8401L49.1181 34.0801Z" fill="white"/>
</svg>
