<svg width="66" height="66" viewBox="0 0 66 66" fill="none" xmlns="http://www.w3.org/2000/svg">
<path fill-rule="evenodd" clip-rule="evenodd" d="M28.8142 25.1151L58.7965 34.6549C61.1327 35.4336 61.5221 38.7434 59.5752 39.9115L50.8142 45.3628L64.8319 59.5752C66.3894 61.1328 66.3894 63.469 64.8319 64.8319C63.469 66.1947 61.1327 66.3894 59.5752 64.8319L45.5575 50.6195L40.1062 59.3805C38.7434 61.5221 35.6283 61.1328 34.8496 58.7965L25.115 28.8142C24.531 26.4779 26.6726 24.3363 28.8142 25.1151Z" fill="white"/>
<path d="M9.73458 13.6283C8.56644 12.4602 8.56644 10.708 9.73458 9.7345C10.9027 8.56636 12.6549 8.56636 13.6284 9.7345L20.8319 16.7434C21.8054 17.9115 21.8054 19.6637 20.8319 20.6372C19.6638 21.8053 17.9116 21.8053 16.9381 20.6372L9.73458 13.6283Z" fill="white"/>
<path d="M30.3719 2.72566C30.3719 1.16814 31.5401 0 33.0976 0C34.6551 0 35.8232 1.16814 35.8232 2.72566V12.8496C35.8232 14.4071 34.6551 15.5752 33.0976 15.5752C31.5401 15.5752 30.3719 14.4071 30.3719 12.8496V2.72566Z" fill="white"/>
<path d="M2.92046 35.8228C1.36294 35.8228 0.000107482 34.6546 0.000107482 33.0971C0.000107482 31.5396 1.36294 30.1768 2.92046 30.1768H12.8497C14.4072 30.1768 15.77 31.5396 15.77 33.0971C15.77 34.4599 14.4072 35.8228 12.8497 35.8228H2.92046Z" fill="white"/>
</svg>
