<svg width="74" height="100" viewBox="0 0 74 100" fill="none" xmlns="http://www.w3.org/2000/svg">
<g opacity="0.5">
<path d="M73.5124 12.9092V97.9397C73.5124 98.4523 73.3086 98.9438 72.9458 99.3062C72.583 99.6686 72.091 99.8722 71.5779 99.8722H1.93454C1.42147 99.8722 0.92941 99.6686 0.566613 99.3062C0.203817 98.9438 0 98.4523 0 97.9397V12.9092C0 12.3967 0.203817 11.9051 0.566613 11.5427C0.92941 11.1803 1.42147 10.9767 1.93454 10.9767H20.8156C21.3287 10.9767 21.8208 11.1803 22.1835 11.5427C22.5463 11.9051 22.7502 12.3967 22.7502 12.9092C22.7502 13.4217 22.5463 13.9133 22.1835 14.2757C21.8208 14.6381 21.3287 14.8417 20.8156 14.8417H3.86908V96.0072H69.6434V14.8417H52.2325C51.7194 14.8417 51.2274 14.6381 50.8646 14.2757C50.5018 13.9133 50.298 13.4217 50.298 12.9092C50.298 12.3967 50.5018 11.9051 50.8646 11.5427C51.2274 11.1803 51.7194 10.9767 52.2325 10.9767H71.5779C72.091 10.9767 72.583 11.1803 72.9458 11.5427C73.3086 11.9051 73.5124 12.3967 73.5124 12.9092ZM23.8335 12.9092C23.8335 10.356 24.5914 7.86013 26.0114 5.73723C27.4313 3.61433 29.4496 1.95972 31.8109 0.982659C34.1722 0.00559312 36.7706 -0.250051 39.2773 0.248052C41.7841 0.746156 44.0867 1.97564 45.894 3.78102C47.7012 5.5864 48.932 7.88659 49.4306 10.3907C49.9293 12.8949 49.6733 15.4905 48.6952 17.8493C47.7172 20.2082 46.0608 22.2243 43.9357 23.6428C41.8106 25.0613 39.3121 25.8184 36.7562 25.8184C33.332 25.8082 30.051 24.4448 27.6298 22.0261C25.2085 19.6074 23.8437 16.3298 23.8335 12.9092ZM27.7026 12.9092C27.7026 14.698 28.2336 16.4465 29.2284 17.9339C30.2232 19.4212 31.6372 20.5804 33.2915 21.2649C34.9459 21.9494 36.7663 22.1285 38.5225 21.7796C40.2787 21.4306 41.8919 20.5692 43.1581 19.3044C44.4243 18.0395 45.2866 16.428 45.6359 14.6736C45.9852 12.9192 45.8059 11.1007 45.1207 9.44814C44.4354 7.79553 43.275 6.38303 41.7861 5.38925C40.2973 4.39546 38.5469 3.86503 36.7562 3.86503C34.355 3.86503 32.0522 4.81789 30.3543 6.514C28.6564 8.21011 27.7026 10.5105 27.7026 12.9092ZM34.8217 14.8417V18.7067C34.8217 19.2193 35.0255 19.7108 35.3883 20.0732C35.7511 20.4356 36.2431 20.6392 36.7562 20.6392C37.2693 20.6392 37.7613 20.4356 38.1241 20.0732C38.4869 19.7108 38.6908 19.2193 38.6908 18.7067V14.8417H42.7533C43.2664 14.8417 43.7584 14.6381 44.1212 14.2757C44.484 13.9133 44.6878 13.4217 44.6878 12.9092C44.6878 12.3967 44.484 11.9051 44.1212 11.5427C43.7584 11.1803 43.2664 10.9767 42.7533 10.9767H38.6908V7.11165C38.6908 6.59912 38.4869 6.10757 38.1241 5.74516C37.7613 5.38274 37.2693 5.17914 36.7562 5.17914C36.2431 5.17914 35.7511 5.38274 35.3883 5.74516C35.0255 6.10757 34.8217 6.59912 34.8217 7.11165V10.9767H30.7205C30.2074 10.9767 29.7153 11.1803 29.3525 11.5427C28.9897 11.9051 28.7859 12.3967 28.7859 12.9092C28.7859 13.4217 28.9897 13.9133 29.3525 14.2757C29.7153 14.6381 30.2074 14.8417 30.7205 14.8417H34.8217ZM22.7502 36.4472C22.7578 37.649 22.4081 38.8259 21.7453 39.8289C21.0825 40.8319 20.1365 41.6156 19.0272 42.0808C17.918 42.5461 16.6954 42.6718 15.5145 42.442C14.3337 42.2122 13.2477 41.6374 12.3943 40.7903C11.5409 39.9432 10.9585 38.8621 10.721 37.6839C10.4834 36.5058 10.6014 35.2837 11.06 34.1727C11.5187 33.0616 12.2972 32.1116 13.2969 31.4431C14.2967 30.7747 15.4727 30.4178 16.6757 30.4177C18.2801 30.4177 19.8193 31.0517 20.9574 32.1814C22.0955 33.311 22.7399 34.8445 22.7502 36.4472ZM18.8811 36.4472C18.8709 35.8696 18.6341 35.3191 18.2216 34.9143C17.8091 34.5095 17.254 34.2827 16.6757 34.2828C16.1011 34.2828 15.55 34.5108 15.1436 34.9167C14.7373 35.3226 14.509 35.8731 14.509 36.4472C14.5089 37.0248 14.736 37.5794 15.1412 37.9915C15.5465 38.4035 16.0975 38.6401 16.6757 38.6502C17.2575 38.6403 17.8127 38.405 18.2241 37.994C18.6356 37.583 18.8711 37.0284 18.8811 36.4472ZM22.7502 59.6373C22.817 60.4723 22.7101 61.3121 22.4362 62.1038C22.1622 62.8955 21.7271 63.6219 21.1583 64.2374C20.5895 64.8529 19.8993 65.344 19.1312 65.68C18.363 66.0159 17.5336 66.1893 16.6951 66.1893C15.8565 66.1893 15.0271 66.0159 14.2589 65.68C13.4908 65.344 12.8006 64.8529 12.2318 64.2374C11.663 63.6219 11.2279 62.8955 10.954 62.1038C10.68 61.3121 10.5731 60.4723 10.64 59.6373C10.7617 58.1166 11.4525 56.6975 12.5746 55.6626C13.6967 54.6278 15.1679 54.0531 16.6951 54.0531C18.2222 54.0531 19.6934 54.6278 20.8155 55.6626C21.9376 56.6975 22.6284 58.1166 22.7502 59.6373ZM18.8811 59.6373C18.8709 59.0598 18.6341 58.5093 18.2216 58.1045C17.8091 57.6996 17.254 57.4728 16.6757 57.4729C16.1011 57.4729 15.55 57.7009 15.1436 58.1069C14.7373 58.5128 14.509 59.0633 14.509 59.6373C14.5089 60.215 14.736 60.7696 15.1412 61.1816C15.5465 61.5937 16.0975 61.8303 16.6757 61.8404C16.9738 61.8354 17.2678 61.7712 17.5408 61.6515C17.8137 61.5317 18.06 61.3589 18.2653 61.143C18.4706 60.9271 18.6308 60.6725 18.7365 60.3941C18.8423 60.1156 18.8914 59.819 18.8811 59.5214V59.6373ZM22.7502 82.8275C22.7578 84.0293 22.4081 85.2062 21.7453 86.2092C21.0825 87.2122 20.1365 87.9959 19.0272 88.4611C17.918 88.9264 16.6954 89.0521 15.5145 88.8223C14.3337 88.5925 13.2477 88.0177 12.3943 87.1706C11.5409 86.3235 10.9585 85.2424 10.721 84.0642C10.4834 82.8861 10.6014 81.664 11.06 80.553C11.5187 79.4419 12.2972 78.4919 13.2969 77.8234C14.2967 77.155 15.4727 76.7981 16.6757 76.798C18.2219 76.7949 19.7111 77.3809 20.8398 78.4366C21.9685 79.4923 22.6517 80.9382 22.7502 82.4796V82.8275ZM18.8811 82.8275C18.8709 82.2499 18.6341 81.6994 18.2216 81.2946C17.8091 80.8898 17.254 80.663 16.6757 80.6631C16.1011 80.6631 15.55 80.8911 15.1436 81.297C14.7373 81.7029 14.509 82.2534 14.509 82.8275C14.509 83.4015 14.7373 83.952 15.1436 84.3579C15.55 84.7639 16.1011 84.9919 16.6757 84.9919C16.9933 84.995 17.3079 84.9296 17.5978 84.8001C17.8878 84.6706 18.1463 84.48 18.3557 84.2415C18.5651 84.0029 18.7205 83.722 18.8111 83.4179C18.9018 83.1138 18.9257 82.7938 18.8811 82.4796V82.8275ZM59.7385 34.5147H28.7859C28.2728 34.5147 27.7808 34.7183 27.418 35.0807C27.0552 35.4431 26.8514 35.9347 26.8514 36.4472C26.8514 36.9597 27.0552 37.4513 27.418 37.8137C27.7808 38.1761 28.2728 38.3797 28.7859 38.3797H59.7385C60.2516 38.3797 60.7437 38.1761 61.1065 37.8137C61.4692 37.4513 61.6731 36.9597 61.6731 36.4472C61.6632 35.9377 61.4562 35.4519 61.0955 35.0916C60.7348 34.7313 60.2485 34.5246 59.7385 34.5147ZM59.7385 57.7048H28.7859C28.2728 57.7048 27.7808 57.9084 27.418 58.2708C27.0552 58.6333 26.8514 59.1248 26.8514 59.6373C26.8514 60.1499 27.0552 60.6414 27.418 61.0038C27.7808 61.3662 28.2728 61.5698 28.7859 61.5698H59.7385C60.2516 61.5698 60.7437 61.3662 61.1065 61.0038C61.4692 60.6414 61.6731 60.1499 61.6731 59.6373C61.6834 59.3753 61.6413 59.1138 61.5492 58.8682C61.4571 58.6226 61.3168 58.3978 61.1367 58.207C60.9565 58.0163 60.7401 57.8633 60.5 57.7572C60.2599 57.651 60.001 57.5938 59.7385 57.5889V57.7048ZM59.7385 80.895H28.7859C28.2728 80.895 27.7808 81.0986 27.418 81.461C27.0552 81.8234 26.8514 82.3149 26.8514 82.8275C26.8514 83.34 27.0552 83.8316 27.418 84.194C27.7808 84.5564 28.2728 84.76 28.7859 84.76H59.7385C60.2516 84.76 60.7437 84.5564 61.1065 84.194C61.4692 83.8316 61.6731 83.34 61.6731 82.8275C61.6731 82.3149 61.4692 81.8234 61.1065 81.461C60.7437 81.0986 60.2516 80.895 59.7385 80.895Z" fill="white"/>
</g>
</svg>
