<svg width="152" height="117" viewBox="0 0 152 117" fill="none" xmlns="http://www.w3.org/2000/svg">
	<path d="M2.38354 116.444H149.558C150.678 116.444 151.478 115.644 151.478 114.525C151.478 113.405 150.678 112.605 149.558 112.605H136.761V20.3135C136.761 19.1938 135.961 18.3941 134.841 18.3941H97.7273C96.6075 18.3941 95.8076 19.1938 95.8076 20.3135V32.7897H93.2481C92.6082 29.4307 90.6885 26.7115 88.1289 25.112C87.969 20.9533 85.2494 17.4344 82.21 17.4344H80.2903V6.39775C80.2903 5.2781 79.4904 4.47834 78.3706 4.47834C77.2508 4.47834 76.4509 5.2781 76.4509 6.39775V17.4344H74.5313C71.6517 17.4344 68.7722 21.1133 68.6123 25.112C66.2127 26.5516 64.133 29.4307 63.4931 32.7897H60.9336V2.07908C60.9336 0.959419 60.1337 0.159668 59.0139 0.159668H18.2208C17.101 0.159668 16.3012 0.959419 16.3012 2.07908V112.445H2.38354C1.26373 112.445 0.463867 113.245 0.463867 114.365C0.463867 115.484 1.4237 116.444 2.38354 116.444ZM99.807 34.7091V22.2329H132.761V112.445H99.807V34.7091ZM74.5313 21.2732H82.3699C82.6899 21.4332 83.8097 22.3929 84.2896 23.9924H72.7716C73.0915 22.5528 74.0513 21.5931 74.5313 21.2732ZM71.9717 27.9912H84.9295C86.3692 27.9912 88.6089 29.9106 89.4087 32.6298H67.3325C68.1323 29.9106 70.5319 27.9912 71.9717 27.9912ZM95.8076 36.6285V112.445H61.0935L60.7736 36.6285H95.8076ZM20.1405 4.15845H56.9342V112.445H20.1405V4.15845Z" fill="white" />
	<path d="M28.78 11.6763C27.6602 11.6763 26.8604 12.476 26.8604 13.5957V19.6738C26.8604 20.7935 27.6602 21.5932 28.78 21.5932C29.8998 21.5932 30.6997 20.7935 30.6997 19.6738V13.5957C30.6997 12.476 29.7399 11.6763 28.78 11.6763Z" fill="white" />
	<path d="M38.8572 11.6763C37.7374 11.6763 36.9375 12.476 36.9375 13.5957V19.6738C36.9375 20.7935 37.7374 21.5932 38.8572 21.5932C39.977 21.5932 40.7769 20.7935 40.7769 19.6738V13.5957C40.7769 12.476 39.817 11.6763 38.8572 11.6763Z" fill="white" />
	<path d="M48.7761 11.6763C47.6563 11.6763 46.8564 12.476 46.8564 13.5957V19.6738C46.8564 20.7935 47.6563 21.5932 48.7761 21.5932C49.8959 21.5932 50.6958 20.7935 50.6958 19.6738V13.5957C50.6958 12.476 49.8959 11.6763 48.7761 11.6763Z" fill="white" />
	<path d="M28.78 27.6714C27.6602 27.6714 26.8604 28.4712 26.8604 29.5908V35.6689C26.8604 36.7886 27.6602 37.5883 28.78 37.5883C29.8998 37.5883 30.6997 36.7886 30.6997 35.6689V29.5908C30.6997 28.6311 29.7399 27.6714 28.78 27.6714Z" fill="white" />
	<path d="M38.8572 27.6714C37.7374 27.6714 36.9375 28.4712 36.9375 29.5908V35.6689C36.9375 36.7886 37.7374 37.5883 38.8572 37.5883C39.977 37.5883 40.7769 36.7886 40.7769 35.6689V29.5908C40.7769 28.6311 39.817 27.6714 38.8572 27.6714Z" fill="white" />
	<path d="M48.7761 27.6714C47.6563 27.6714 46.8564 28.4712 46.8564 29.5908V35.6689C46.8564 36.7886 47.6563 37.5883 48.7761 37.5883C49.8959 37.5883 50.6958 36.7886 50.6958 35.6689V29.5908C50.6958 28.6311 49.8959 27.6714 48.7761 27.6714Z" fill="white" />
	<path d="M28.78 43.6665C27.6602 43.6665 26.8604 44.4663 26.8604 45.5859V51.664C26.8604 52.7837 27.6602 53.5835 28.78 53.5835C29.8998 53.5835 30.6997 52.7837 30.6997 51.664V45.5859C30.6997 44.4663 29.7399 43.6665 28.78 43.6665Z" fill="white" />
	<path d="M38.8572 43.6665C37.7374 43.6665 36.9375 44.4663 36.9375 45.5859V51.664C36.9375 52.7837 37.7374 53.5835 38.8572 53.5835C39.977 53.5835 40.7769 52.7837 40.7769 51.664V45.5859C40.7769 44.4663 39.817 43.6665 38.8572 43.6665Z" fill="white" />
	<path d="M48.7761 43.6665C47.6563 43.6665 46.8564 44.4663 46.8564 45.5859V51.664C46.8564 52.7837 47.6563 53.5835 48.7761 53.5835C49.8959 53.5835 50.6958 52.7837 50.6958 51.664V45.5859C50.6958 44.4663 49.8959 43.6665 48.7761 43.6665Z" fill="white" />
	<path d="M28.78 59.5015C27.6602 59.5015 26.8604 60.3012 26.8604 61.4209V67.499C26.8604 68.6187 27.6602 69.4185 28.78 69.4185C29.8998 69.4185 30.6997 68.6187 30.6997 67.499V61.4209C30.6997 60.4612 29.7399 59.5015 28.78 59.5015Z" fill="white" />
	<path d="M38.8572 59.5015C37.7374 59.5015 36.9375 60.3012 36.9375 61.4209V67.499C36.9375 68.6187 37.7374 69.4185 38.8572 69.4185C39.977 69.4185 40.7769 68.6187 40.7769 67.499V61.4209C40.7769 60.4612 39.817 59.5015 38.8572 59.5015Z" fill="white" />
	<path d="M48.7761 59.5015C47.6563 59.5015 46.8564 60.3012 46.8564 61.4209V67.499C46.8564 68.6187 47.6563 69.4185 48.7761 69.4185C49.8959 69.4185 50.6958 68.6187 50.6958 67.499V61.4209C50.6958 60.4612 49.8959 59.5015 48.7761 59.5015Z" fill="white" />
	<path d="M28.78 75.6567C27.6602 75.6567 26.8604 76.4565 26.8604 77.5762V83.6543C26.8604 84.7739 27.6602 85.5737 28.78 85.5737C29.8998 85.5737 30.6997 84.7739 30.6997 83.6543V77.5762C30.6997 76.4565 29.7399 75.6567 28.78 75.6567Z" fill="white" />
	<path d="M38.8572 75.6567C37.7374 75.6567 36.9375 76.4565 36.9375 77.5762V83.6543C36.9375 84.7739 37.7374 85.5737 38.8572 85.5737C39.977 85.5737 40.7769 84.7739 40.7769 83.6543V77.5762C40.7769 76.4565 39.817 75.6567 38.8572 75.6567Z" fill="white" />
	<path d="M48.7761 75.6567C47.6563 75.6567 46.8564 76.4565 46.8564 77.5762V83.6543C46.8564 84.7739 47.6563 85.5737 48.7761 85.5737C49.8959 85.5737 50.6958 84.7739 50.6958 83.6543V77.5762C50.6958 76.4565 49.8959 75.6567 48.7761 75.6567Z" fill="white" />
	<path d="M28.78 91.4917C27.6602 91.4917 26.8604 92.2915 26.8604 93.4111V99.4892C26.8604 100.609 27.6602 101.409 28.78 101.409C29.8998 101.409 30.6997 100.609 30.6997 99.4892V93.4111C30.6997 92.4514 29.7399 91.4917 28.78 91.4917Z" fill="white" />
	<path d="M38.8572 91.4917C37.7374 91.4917 36.9375 92.2915 36.9375 93.4111V99.4892C36.9375 100.609 37.7374 101.409 38.8572 101.409C39.977 101.409 40.7769 100.609 40.7769 99.4892V93.4111C40.7769 92.4514 39.817 91.4917 38.8572 91.4917Z" fill="white" />
	<path d="M48.7761 91.4917C47.6563 91.4917 46.8564 92.2915 46.8564 93.4111V99.4892C46.8564 100.609 47.6563 101.409 48.7761 101.409C49.8959 101.409 50.6958 100.609 50.6958 99.4892V93.4111C50.6958 92.4514 49.8959 91.4917 48.7761 91.4917Z" fill="white" />
	<path d="M68.1326 53.7431C69.2524 53.7431 70.0522 52.9434 70.0522 51.8237V45.7456C70.0522 44.6259 69.2524 43.8262 68.1326 43.8262C67.0128 43.8262 66.2129 44.6259 66.2129 45.7456V51.8237C66.2129 52.9434 67.0128 53.7431 68.1326 53.7431Z" fill="white" />
	<path d="M78.2107 53.7431C79.3305 53.7431 80.1304 52.9434 80.1304 51.8237V45.7456C80.1304 44.6259 79.3305 43.8262 78.2107 43.8262C77.0909 43.8262 76.291 44.6259 76.291 45.7456V51.8237C76.291 52.9434 77.2509 53.7431 78.2107 53.7431Z" fill="white" />
	<path d="M88.4497 53.7431C89.5695 53.7431 90.3694 52.9434 90.3694 51.8237V45.7456C90.3694 44.6259 89.5695 43.8262 88.4497 43.8262C87.3299 43.8262 86.53 44.6259 86.53 45.7456V51.8237C86.3701 52.9434 87.1699 53.7431 88.4497 53.7431Z" fill="white" />
	<path d="M68.1326 69.7383C69.2524 69.7383 70.0522 68.9385 70.0522 67.8189V61.7407C70.0522 60.621 69.2524 59.8213 68.1326 59.8213C67.0128 59.8213 66.2129 60.621 66.2129 61.7407V67.8189C66.2129 68.7786 67.0128 69.7383 68.1326 69.7383Z" fill="white" />
	<path d="M78.2107 69.7383C79.3305 69.7383 80.1304 68.9385 80.1304 67.8189V61.7407C80.1304 60.621 79.3305 59.8213 78.2107 59.8213C77.0909 59.8213 76.291 60.621 76.291 61.7407V67.8189C76.291 68.7786 77.2509 69.7383 78.2107 69.7383Z" fill="white" />
	<path d="M88.4497 69.7383C89.5695 69.7383 90.3694 68.9385 90.3694 67.8189V61.7407C90.3694 60.621 89.5695 59.8213 88.4497 59.8213C87.3299 59.8213 86.53 60.621 86.53 61.7407V67.8189C86.3701 68.7786 87.1699 69.7383 88.4497 69.7383Z" fill="white" />
	<path d="M68.1326 85.5737C69.2524 85.5737 70.0522 84.7739 70.0522 83.6543V77.5762C70.0522 76.4565 69.2524 75.6567 68.1326 75.6567C67.0128 75.6567 66.2129 76.4565 66.2129 77.5762V83.6543C66.2129 84.7739 67.0128 85.5737 68.1326 85.5737Z" fill="white" />
	<path d="M78.2107 85.5737C79.3305 85.5737 80.1304 84.7739 80.1304 83.6543V77.5762C80.1304 76.4565 79.3305 75.6567 78.2107 75.6567C77.0909 75.6567 76.291 76.4565 76.291 77.5762V83.6543C76.291 84.7739 77.2509 85.5737 78.2107 85.5737Z" fill="white" />
	<path d="M88.4497 85.5737C89.5695 85.5737 90.3694 84.7739 90.3694 83.6543V77.5762C90.3694 76.4565 89.5695 75.6567 88.4497 75.6567C87.3299 75.6567 86.53 76.4565 86.53 77.5762V83.6543C86.3701 84.7739 87.1699 85.5737 88.4497 85.5737Z" fill="white" />
	<path d="M68.1326 101.728C69.2524 101.728 70.0522 100.929 70.0522 99.8091V93.7309C70.0522 92.6112 69.2524 91.8115 68.1326 91.8115C67.0128 91.8115 66.2129 92.6112 66.2129 93.7309V99.8091C66.2129 100.769 67.0128 101.728 68.1326 101.728Z" fill="white" />
	<path d="M78.2107 101.728C79.3305 101.728 80.1304 100.929 80.1304 99.8091V93.7309C80.1304 92.6112 79.3305 91.8115 78.2107 91.8115C77.0909 91.8115 76.291 92.6112 76.291 93.7309V99.8091C76.291 100.769 77.2509 101.728 78.2107 101.728Z" fill="white" />
	<path d="M88.4497 101.728C89.5695 101.728 90.3694 100.929 90.3694 99.8091V93.7309C90.3694 92.6112 89.5695 91.8115 88.4497 91.8115C87.3299 91.8115 86.53 92.6112 86.53 93.7309V99.8091C86.3701 100.769 87.1699 101.728 88.4497 101.728Z" fill="white" />
	<path d="M107.326 76.1365C108.446 76.1365 109.246 75.3368 109.246 74.2171V57.7421C109.246 56.6225 108.446 55.8228 107.326 55.8228C106.206 55.8228 105.406 56.6225 105.406 57.7421V74.2171C105.406 75.1768 106.366 76.1365 107.326 76.1365Z" fill="white" />
	<path d="M116.284 76.1365C117.404 76.1365 118.204 75.3368 118.204 74.2171V57.7421C118.204 56.6225 117.404 55.8228 116.284 55.8228C115.164 55.8228 114.364 56.6225 114.364 57.7421V74.2171C114.204 75.1768 115.164 76.1365 116.284 76.1365Z" fill="white" />
	<path d="M125.083 55.8228C123.963 55.8228 123.163 56.6225 123.163 57.7421V74.2171C123.163 75.3368 123.963 76.1365 125.083 76.1365C126.203 76.1365 127.002 75.3368 127.002 74.2171V57.7421C127.002 56.6225 126.203 55.8228 125.083 55.8228Z" fill="white" />
	<path d="M107.326 49.7444C108.446 49.7444 109.246 48.9447 109.246 47.8251V31.35C109.246 30.2304 108.446 29.4307 107.326 29.4307C106.206 29.4307 105.406 30.2304 105.406 31.35V47.8251C105.406 48.7848 106.366 49.7444 107.326 49.7444Z" fill="white" />
	<path d="M116.284 49.7444C117.404 49.7444 118.204 48.9447 118.204 47.8251V31.35C118.204 30.2304 117.404 29.4307 116.284 29.4307C115.164 29.4307 114.364 30.2304 114.364 31.35V47.8251C114.204 48.7848 115.164 49.7444 116.284 49.7444Z" fill="white" />
	<path d="M125.083 29.4307C123.963 29.4307 123.163 30.2304 123.163 31.35V47.8251C123.163 48.9447 123.963 49.7444 125.083 49.7444C126.203 49.7444 127.002 48.9447 127.002 47.8251V31.35C127.002 30.2304 126.203 29.4307 125.083 29.4307Z" fill="white" />
	<path d="M107.645 81.7349C106.525 81.7349 105.726 82.5346 105.726 83.6543V100.129C105.726 101.249 106.525 102.049 107.645 102.049C108.765 102.049 109.565 101.249 109.565 100.129V83.6543C109.565 82.6946 108.605 81.7349 107.645 81.7349Z" fill="white" />
	<path d="M116.284 81.7349C115.164 81.7349 114.364 82.5346 114.364 83.6543V100.129C114.364 101.249 115.164 102.049 116.284 102.049C117.404 102.049 118.204 101.249 118.204 100.129V83.6543C118.204 82.6946 117.404 81.7349 116.284 81.7349Z" fill="white" />
	<path d="M125.083 81.7349C123.963 81.7349 123.163 82.5346 123.163 83.6543V100.129C123.163 101.249 123.963 102.049 125.083 102.049C126.203 102.049 127.002 101.249 127.002 100.129V83.6543C127.002 82.6946 126.203 81.7349 125.083 81.7349Z" fill="white" />
</svg>
