<svg width="75" height="63" viewBox="0 0 75 63" fill="none" xmlns="http://www.w3.org/2000/svg">
<path d="M70.6742 0H4.32536C3.17862 0.00134803 2.07923 0.456172 1.26836 1.2647C0.457492 2.07323 0.00135193 3.16944 0 4.31287V44.9626C0.00135193 46.1061 0.457492 47.2023 1.26836 48.0108C2.07923 48.8193 3.17862 49.2742 4.32536 49.2755H34.374C34.0651 53.1395 32.7042 54.369 30.5831 55.6068C27.326 57.4994 22.7817 58.7112 20.2887 59.2694C19.7651 59.389 19.2985 59.684 18.9667 60.1052C18.6349 60.5264 18.458 61.0484 18.4655 61.5839V62.6459C18.4648 62.6921 18.4732 62.738 18.4904 62.7808C18.5075 62.8237 18.5331 62.8627 18.5655 62.8957C18.5979 62.9286 18.6366 62.9548 18.6793 62.9727C18.722 62.9906 18.7678 62.9998 18.8141 62.9999H56.1853C56.232 63.001 56.2783 62.9925 56.3215 62.975C56.3647 62.9575 56.4039 62.9313 56.4366 62.8982C56.4693 62.865 56.4948 62.8255 56.5116 62.7821C56.5284 62.7388 56.5361 62.6924 56.5342 62.6459V61.5839C56.542 61.0503 56.3669 60.53 56.0378 60.1091C55.7087 59.6882 55.2454 59.3919 54.7245 59.2693C52.2177 58.7111 47.6737 57.4994 44.4166 55.6068C42.3073 54.369 40.9377 53.1395 40.6263 49.2755H70.6742C71.821 49.2742 72.9205 48.8194 73.7315 48.0109C74.5424 47.2024 74.9986 46.1061 75 44.9626V4.31287C74.9986 3.16938 74.5424 2.07312 73.7315 1.26458C72.9205 0.456045 71.821 0.00126223 70.6742 0V0ZM70.8333 44.9626C70.8333 45.0046 70.8165 45.0449 70.7866 45.0746C70.7568 45.1042 70.7164 45.1209 70.6742 45.1209H4.32536C4.28329 45.1208 4.24296 45.1041 4.21321 45.0745C4.18346 45.0448 4.16672 45.0046 4.16667 44.9626V4.31287C4.16672 4.27092 4.18346 4.23071 4.21321 4.20104C4.24296 4.17138 4.28329 4.15469 4.32536 4.15464H70.6742C70.7164 4.15461 70.7568 4.17126 70.7866 4.20093C70.8165 4.2306 70.8333 4.27086 70.8333 4.31287V44.9626Z" fill="white"/>
</svg>
