<svg width="55" height="75" viewBox="0 0 55 75" fill="none" xmlns="http://www.w3.org/2000/svg">
<path d="M27.1793 0C17.6195 0 9.88 7.72998 9.88 17.2897V36.659C9.84264 38.3431 12.388 38.3431 12.3507 36.659V17.2897C12.3507 9.05596 18.9455 2.4731 27.1793 2.4731C35.413 2.4731 41.9959 9.05596 41.9959 17.2897V36.659C41.9959 38.3077 44.4689 38.3077 44.4689 36.659V17.2897C44.4689 7.72994 36.739 0 27.1793 0ZM25.9391 68.0608V71.6486H11.1201V65.4502C11.1201 63.8027 8.6495 63.8027 8.6495 65.4502V71.6486H2.47047V55.5893C2.47047 48.8852 7.23734 43.383 13.5908 42.2326V52.115C12.1597 52.6283 11.1201 53.9902 11.1201 55.5893C11.1201 57.6215 12.7892 59.2929 14.8213 59.2929C16.8534 59.2929 18.5344 57.6214 18.5344 55.5893C18.5344 53.994 17.4921 52.6359 16.0638 52.1198V42.0009C17.7342 42.0196 17.7292 39.5036 16.0592 39.5302C7.18379 39.5302 0 46.714 0 55.5893V72.8838C9.29115e-05 73.566 0.553127 74.1191 1.23535 74.1191H53.1187C53.8009 74.1191 54.354 73.566 54.354 72.8838V55.5893C54.354 46.714 47.1703 39.5302 38.2949 39.5302C36.6243 39.5069 36.6243 42.0246 38.2949 42.0009V50.7712C35.4812 51.3448 33.3512 53.841 33.3512 56.8198V58.0624C33.3512 59.7112 35.8242 59.7112 35.8242 58.0624V56.8198C35.8243 54.7453 37.451 53.1188 39.5255 53.1188C41.5999 53.1188 43.2387 54.7454 43.2387 56.8198V58.0624C43.2013 59.7465 45.7467 59.7465 45.7093 58.0624V56.8198C45.7093 53.8444 43.5762 51.3508 40.7656 50.7735V42.2326C47.1179 43.3839 51.8835 48.886 51.8835 55.5893V71.6486H45.7093V65.4502C45.7093 63.8027 43.2387 63.8027 43.2387 65.4502V71.6486H28.4101V68.1041L34.5287 41.154C34.5707 41.0279 34.5932 40.8962 34.5936 40.7631V34.2079C36.8598 32.1726 38.2947 29.229 38.2947 25.9442V18.5299C38.2972 17.8475 37.7467 17.2921 37.0642 17.2897H34.5936C31.8408 17.2897 30.8177 14.4355 30.8177 14.4355C30.6445 13.9084 30.1414 13.5627 29.5872 13.5886C29.0766 13.6119 28.6322 13.95 28.4725 14.4355C28.4725 14.4355 27.4752 17.2897 24.7086 17.2897H17.2943C16.6119 17.2922 16.0612 17.8475 16.0639 18.5299V25.9442C16.0639 29.2302 17.4973 32.175 19.765 34.2103V40.7631C19.7653 40.8547 19.7743 40.9462 19.793 41.0359L25.9391 68.0608ZM29.6499 17.2969C30.5717 18.565 32.2246 19.7603 34.5936 19.7603H35.8241V25.9442C35.8241 30.7561 31.9912 34.589 27.1793 34.589C22.3674 34.589 18.5344 30.7561 18.5344 25.9442V19.7603H24.7062C27.0792 19.7603 28.7289 18.5663 29.6499 17.2969ZM22.2356 35.8895C23.7262 36.6322 25.4012 37.0596 27.1793 37.0596C28.9566 37.0596 30.6305 36.6315 32.1205 35.8895V40.4615C32.1205 40.4615 31.0578 43.2338 27.1793 43.2338C23.3007 43.2338 22.2356 40.4615 22.2356 40.4615V35.8895ZM31.1723 44.79L27.1793 62.374L23.1862 44.7925C24.2346 45.3267 25.5558 45.7044 27.1793 45.7044C28.8062 45.7044 30.1255 45.3258 31.1723 44.79ZM14.8213 54.3493C15.5181 54.3493 16.0638 54.8925 16.0638 55.5893C16.0638 56.2862 15.5181 56.8198 14.8213 56.8198C14.1244 56.8199 13.5908 56.2862 13.5908 55.5893C13.5908 54.8925 14.1244 54.3493 14.8213 54.3493Z" fill="white"/>
</svg>
