<svg width="63" height="59" viewBox="0 0 63 59" fill="none" xmlns="http://www.w3.org/2000/svg">
<path d="M57.8721 35.1219V26.1237C57.8721 11.6831 46.0779 0 31.5 0C16.9221 0 5.12791 11.6831 5.12791 26.1237V35.1219C2.19767 35.4847 0 37.952 0 40.8546V53.1908C0 56.3837 2.63721 58.9961 5.86047 58.9961H13.186C14.3581 59.0686 15.3105 58.1253 15.3837 56.9642C15.3837 56.8917 15.3837 56.8917 15.3837 56.8191V37.2263C15.457 36.0652 14.5047 35.1219 13.3326 35.0493C13.2593 35.0493 13.2593 35.0493 13.186 35.0493H9.52326V26.1237C9.52326 14.0778 19.3395 4.35395 31.5 4.35395C43.6605 4.35395 53.4767 14.0778 53.4767 26.1237V35.0493H49.814C48.6419 34.9768 47.6895 35.9201 47.6163 37.0812C47.6163 37.1537 47.6163 37.1537 47.6163 37.2263V56.8191C47.543 57.9802 48.4954 58.9235 49.6674 58.9961C49.7407 58.9961 49.7407 58.9961 49.814 58.9961H57.1395C60.3628 58.9961 63 56.3837 63 53.1908V40.8546C63 37.952 60.8023 35.4847 57.8721 35.1219ZM10.9884 39.4033V54.6421H5.86047C5.05465 54.6421 4.39535 53.989 4.39535 53.1908V40.8546C4.39535 40.0564 5.05465 39.4033 5.86047 39.4033H10.9884ZM58.6047 53.1908C58.6047 53.989 57.9453 54.6421 57.1395 54.6421H52.0116V39.4033H57.1395C57.9453 39.4033 58.6047 40.0564 58.6047 40.8546V53.1908Z" fill="white"/>
</svg>
