<svg width="120" height="120" viewBox="0 0 120 120" fill="none" xmlns="http://www.w3.org/2000/svg">
<g opacity="0.5">
<path d="M117.37 37.7972H83.5516V23.8719C83.5516 23.3443 83.3421 22.8383 82.969 22.4652C82.5959 22.0922 82.0899 21.8826 81.5623 21.8826H79.573C79.573 21.2261 79.573 20.5696 79.573 19.8932C79.573 14.6172 77.4771 9.55731 73.7464 5.8266C70.0157 2.09589 64.9558 0 59.6797 0C54.4037 0 49.3438 2.09589 45.6131 5.8266C41.8824 9.55731 39.7865 14.6172 39.7865 19.8932C39.7865 20.5696 39.7865 21.2261 39.886 21.8826H37.7972C37.2696 21.8826 36.7636 22.0922 36.3905 22.4652C36.0174 22.8383 35.8078 23.3443 35.8078 23.8719V57.6904H1.98932C1.46172 57.6904 0.95573 57.9 0.58266 58.2731C0.209589 58.6462 0 59.1521 0 59.6797V117.37C0 117.898 0.209589 118.404 0.58266 118.777C0.95573 119.15 1.46172 119.359 1.98932 119.359H117.37C117.898 119.359 118.404 119.15 118.777 118.777C119.15 118.404 119.359 117.898 119.359 117.37V39.7865C119.359 39.2589 119.15 38.7529 118.777 38.3798C118.404 38.0068 117.898 37.7972 117.37 37.7972ZM59.6797 3.97865C62.8274 3.97865 65.9043 4.91202 68.5214 6.66074C71.1386 8.40946 73.1784 10.895 74.3829 13.803C75.5875 16.711 75.9026 19.9109 75.2886 22.998C74.6745 26.0852 73.1588 28.9209 70.9331 31.1466C68.7074 33.3723 65.8717 34.888 62.7845 35.5021C59.6974 36.1161 56.4975 35.801 53.5895 34.5964C50.6815 33.3919 48.196 31.3521 46.4472 28.7349C44.6985 26.1178 43.7651 23.0409 43.7651 19.8932C43.7651 15.6724 45.4419 11.6245 48.4264 8.63993C51.411 5.65536 55.4589 3.97865 59.6797 3.97865ZM3.97865 61.6691H35.8078V115.381H3.97865V61.6691ZM39.7865 59.6797V25.8612H40.7016C41.9709 29.9004 44.4959 33.4292 47.9091 35.9344C51.3224 38.4395 55.4458 39.7903 59.6797 39.7903C63.9137 39.7903 68.0371 38.4395 71.4504 35.9344C74.8636 33.4292 77.3886 29.9004 78.6579 25.8612H79.573V115.381H71.6157V89.5196C71.6157 88.992 71.4061 88.486 71.033 88.113C70.66 87.7399 70.154 87.5303 69.6264 87.5303H49.7331C49.2055 87.5303 48.6995 87.7399 48.3265 88.113C47.9534 88.486 47.7438 88.992 47.7438 89.5196V115.381H39.7865V59.6797ZM51.7224 91.5089H57.6904V115.381H51.7224V91.5089ZM61.6691 115.381V91.5089H67.637V115.381H61.6691ZM115.381 115.381H83.5516V41.7758H115.381V115.381Z" fill="white"/>
<path d="M27.8508 75.5942H23.8721C23.3445 75.5942 22.8385 75.8038 22.4655 76.1769C22.0924 76.55 21.8828 77.056 21.8828 77.5836C21.8828 78.1112 22.0924 78.6172 22.4655 78.9902C22.8385 79.3633 23.3445 79.5729 23.8721 79.5729H27.8508C28.3784 79.5729 28.8844 79.3633 29.2575 78.9902C29.6305 78.6172 29.8401 78.1112 29.8401 77.5836C29.8401 77.056 29.6305 76.55 29.2575 76.1769C28.8844 75.8038 28.3784 75.5942 27.8508 75.5942Z" fill="white"/>
<path d="M27.8508 85.541H23.8721C23.3445 85.541 22.8385 85.7506 22.4655 86.1237C22.0924 86.4967 21.8828 87.0027 21.8828 87.5303C21.8828 88.0579 22.0924 88.5639 22.4655 88.937C22.8385 89.3101 23.3445 89.5197 23.8721 89.5197H27.8508C28.3784 89.5197 28.8844 89.3101 29.2575 88.937C29.6305 88.5639 29.8401 88.0579 29.8401 87.5303C29.8401 87.0027 29.6305 86.4967 29.2575 86.1237C28.8844 85.7506 28.3784 85.541 27.8508 85.541Z" fill="white"/>
<path d="M15.9133 65.6475H11.9346C11.407 65.6475 10.901 65.857 10.528 66.2301C10.1549 66.6032 9.94531 67.1092 9.94531 67.6368C9.94531 68.1644 10.1549 68.6704 10.528 69.0435C10.901 69.4165 11.407 69.6261 11.9346 69.6261H15.9133C16.4409 69.6261 16.9469 69.4165 17.32 69.0435C17.693 68.6704 17.9026 68.1644 17.9026 67.6368C17.9026 67.1092 17.693 66.6032 17.32 66.2301C16.9469 65.857 16.4409 65.6475 15.9133 65.6475Z" fill="white"/>
<path d="M15.9133 75.5942H11.9346C11.407 75.5942 10.901 75.8038 10.528 76.1769C10.1549 76.55 9.94531 77.056 9.94531 77.5836C9.94531 78.1112 10.1549 78.6172 10.528 78.9902C10.901 79.3633 11.407 79.5729 11.9346 79.5729H15.9133C16.4409 79.5729 16.9469 79.3633 17.32 78.9902C17.693 78.6172 17.9026 78.1112 17.9026 77.5836C17.9026 77.056 17.693 76.55 17.32 76.1769C16.9469 75.8038 16.4409 75.5942 15.9133 75.5942Z" fill="white"/>
<path d="M15.9133 85.541H11.9346C11.407 85.541 10.901 85.7506 10.528 86.1237C10.1549 86.4967 9.94531 87.0027 9.94531 87.5303C9.94531 88.0579 10.1549 88.5639 10.528 88.937C10.901 89.3101 11.407 89.5197 11.9346 89.5197H15.9133C16.4409 89.5197 16.9469 89.3101 17.32 88.937C17.693 88.5639 17.9026 88.0579 17.9026 87.5303C17.9026 87.0027 17.693 86.4967 17.32 86.1237C16.9469 85.7506 16.4409 85.541 15.9133 85.541Z" fill="white"/>
<path d="M15.9133 95.4878H11.9346C11.407 95.4878 10.901 95.6974 10.528 96.0705C10.1549 96.4435 9.94531 96.9495 9.94531 97.4771C9.94531 98.0047 10.1549 98.5107 10.528 98.8838C10.901 99.2569 11.407 99.4664 11.9346 99.4664H15.9133C16.4409 99.4664 16.9469 99.2569 17.32 98.8838C17.693 98.5107 17.9026 98.0047 17.9026 97.4771C17.9026 96.9495 17.693 96.4435 17.32 96.0705C16.9469 95.6974 16.4409 95.4878 15.9133 95.4878Z" fill="white"/>
<path d="M45.753 47.7443H49.7316C50.2592 47.7443 50.7652 47.5347 51.1383 47.1616C51.5114 46.7885 51.721 46.2826 51.721 45.7549C51.721 45.2273 51.5114 44.7214 51.1383 44.3483C50.7652 43.9752 50.2592 43.7656 49.7316 43.7656H45.753C45.2254 43.7656 44.7194 43.9752 44.3463 44.3483C43.9733 44.7214 43.7637 45.2273 43.7637 45.7549C43.7637 46.2826 43.9733 46.7885 44.3463 47.1616C44.7194 47.5347 45.2254 47.7443 45.753 47.7443Z" fill="white"/>
<path d="M45.753 57.6906H49.7316C50.2592 57.6906 50.7652 57.481 51.1383 57.1079C51.5114 56.7348 51.721 56.2288 51.721 55.7012C51.721 55.1736 51.5114 54.6676 51.1383 54.2946C50.7652 53.9215 50.2592 53.7119 49.7316 53.7119H45.753C45.2254 53.7119 44.7194 53.9215 44.3463 54.2946C43.9733 54.6676 43.7637 55.1736 43.7637 55.7012C43.7637 56.2288 43.9733 56.7348 44.3463 57.1079C44.7194 57.481 45.2254 57.6906 45.753 57.6906Z" fill="white"/>
<path d="M45.753 67.6369H49.7316C50.2592 67.6369 50.7652 67.4273 51.1383 67.0542C51.5114 66.6811 51.721 66.1751 51.721 65.6475C51.721 65.1199 51.5114 64.6139 51.1383 64.2409C50.7652 63.8678 50.2592 63.6582 49.7316 63.6582H45.753C45.2254 63.6582 44.7194 63.8678 44.3463 64.2409C43.9733 64.6139 43.7637 65.1199 43.7637 65.6475C43.7637 66.1751 43.9733 66.6811 44.3463 67.0542C44.7194 67.4273 45.2254 67.6369 45.753 67.6369Z" fill="white"/>
<path d="M49.7316 77.5841C50.2592 77.5841 50.7652 77.3745 51.1383 77.0015C51.5114 76.6284 51.721 76.1224 51.721 75.5948C51.721 75.0672 51.5114 74.5612 51.1383 74.1881C50.7652 73.8151 50.2592 73.6055 49.7316 73.6055H45.753C45.2254 73.6055 44.7194 73.8151 44.3463 74.1881C43.9733 74.5612 43.7637 75.0672 43.7637 75.5948C43.7637 76.1224 43.9733 76.6284 44.3463 77.0015C44.7194 77.3745 45.2254 77.5841 45.753 77.5841H49.7316Z" fill="white"/>
<path d="M91.5089 51.7223H95.4875C96.0151 51.7223 96.5211 51.5127 96.8942 51.1396C97.2672 50.7666 97.4768 50.2606 97.4768 49.733C97.4768 49.2054 97.2672 48.6994 96.8942 48.3263C96.5211 47.9532 96.0151 47.7437 95.4875 47.7437H91.5089C90.9813 47.7437 90.4753 47.9532 90.1022 48.3263C89.7291 48.6994 89.5195 49.2054 89.5195 49.733C89.5195 50.2606 89.7291 50.7666 90.1022 51.1396C90.4753 51.5127 90.9813 51.7223 91.5089 51.7223Z" fill="white"/>
<path d="M91.5089 61.6691H95.4875C96.0151 61.6691 96.5211 61.4595 96.8942 61.0864C97.2672 60.7134 97.4768 60.2074 97.4768 59.6798C97.4768 59.1522 97.2672 58.6462 96.8942 58.2731C96.5211 57.9 96.0151 57.6904 95.4875 57.6904H91.5089C90.9813 57.6904 90.4753 57.9 90.1022 58.2731C89.7291 58.6462 89.5195 59.1522 89.5195 59.6798C89.5195 60.2074 89.7291 60.7134 90.1022 61.0864C90.4753 61.4595 90.9813 61.6691 91.5089 61.6691Z" fill="white"/>
<path d="M91.5089 71.6159H95.4875C96.0151 71.6159 96.5211 71.4063 96.8942 71.0332C97.2672 70.6601 97.4768 70.1541 97.4768 69.6265C97.4768 69.0989 97.2672 68.5929 96.8942 68.2199C96.5211 67.8468 96.0151 67.6372 95.4875 67.6372H91.5089C90.9813 67.6372 90.4753 67.8468 90.1022 68.2199C89.7291 68.5929 89.5195 69.0989 89.5195 69.6265C89.5195 70.1541 89.7291 70.6601 90.1022 71.0332C90.4753 71.4063 90.9813 71.6159 91.5089 71.6159Z" fill="white"/>
<path d="M91.5089 81.5621H95.4875C96.0151 81.5621 96.5211 81.3526 96.8942 80.9795C97.2672 80.6064 97.4768 80.1004 97.4768 79.5728C97.4768 79.0452 97.2672 78.5392 96.8942 78.1662C96.5211 77.7931 96.0151 77.5835 95.4875 77.5835H91.5089C90.9813 77.5835 90.4753 77.7931 90.1022 78.1662C89.7291 78.5392 89.5195 79.0452 89.5195 79.5728C89.5195 80.1004 89.7291 80.6064 90.1022 80.9795C90.4753 81.3526 90.9813 81.5621 91.5089 81.5621Z" fill="white"/>
<path d="M103.444 51.7223H107.423C107.951 51.7223 108.457 51.5127 108.83 51.1396C109.203 50.7666 109.412 50.2606 109.412 49.733C109.412 49.2054 109.203 48.6994 108.83 48.3263C108.457 47.9532 107.951 47.7437 107.423 47.7437H103.444C102.917 47.7437 102.411 47.9532 102.038 48.3263C101.665 48.6994 101.455 49.2054 101.455 49.733C101.455 50.2606 101.665 50.7666 102.038 51.1396C102.411 51.5127 102.917 51.7223 103.444 51.7223Z" fill="white"/>
<path d="M103.444 61.6691H107.423C107.951 61.6691 108.457 61.4595 108.83 61.0864C109.203 60.7134 109.412 60.2074 109.412 59.6798C109.412 59.1522 109.203 58.6462 108.83 58.2731C108.457 57.9 107.951 57.6904 107.423 57.6904H103.444C102.917 57.6904 102.411 57.9 102.038 58.2731C101.665 58.6462 101.455 59.1522 101.455 59.6798C101.455 60.2074 101.665 60.7134 102.038 61.0864C102.411 61.4595 102.917 61.6691 103.444 61.6691Z" fill="white"/>
<path d="M103.444 71.6159H107.423C107.951 71.6159 108.457 71.4063 108.83 71.0332C109.203 70.6601 109.412 70.1541 109.412 69.6265C109.412 69.0989 109.203 68.5929 108.83 68.2199C108.457 67.8468 107.951 67.6372 107.423 67.6372H103.444C102.917 67.6372 102.411 67.8468 102.038 68.2199C101.665 68.5929 101.455 69.0989 101.455 69.6265C101.455 70.1541 101.665 70.6601 102.038 71.0332C102.411 71.4063 102.917 71.6159 103.444 71.6159Z" fill="white"/>
<path d="M103.444 81.5621H107.423C107.951 81.5621 108.457 81.3526 108.83 80.9795C109.203 80.6064 109.412 80.1004 109.412 79.5728C109.412 79.0452 109.203 78.5392 108.83 78.1662C108.457 77.7931 107.951 77.5835 107.423 77.5835H103.444C102.917 77.5835 102.411 77.7931 102.038 78.1662C101.665 78.5392 101.455 79.0452 101.455 79.5728C101.455 80.1004 101.665 80.6064 102.038 80.9795C102.411 81.3526 102.917 81.5621 103.444 81.5621Z" fill="white"/>
<path d="M103.444 91.5089H107.423C107.951 91.5089 108.457 91.2993 108.83 90.9263C109.203 90.5532 109.412 90.0472 109.412 89.5196C109.412 88.992 109.203 88.486 108.83 88.1129C108.457 87.7399 107.951 87.5303 107.423 87.5303H103.444C102.917 87.5303 102.411 87.7399 102.038 88.1129C101.665 88.486 101.455 88.992 101.455 89.5196C101.455 90.0472 101.665 90.5532 102.038 90.9263C102.411 91.2993 102.917 91.5089 103.444 91.5089Z" fill="white"/>
<path d="M91.5089 91.5089H95.4875C96.0151 91.5089 96.5211 91.2993 96.8942 90.9263C97.2672 90.5532 97.4768 90.0472 97.4768 89.5196C97.4768 88.992 97.2672 88.486 96.8942 88.1129C96.5211 87.7399 96.0151 87.5303 95.4875 87.5303H91.5089C90.9813 87.5303 90.4753 87.7399 90.1022 88.1129C89.7291 88.486 89.5195 88.992 89.5195 89.5196C89.5195 90.0472 89.7291 90.5532 90.1022 90.9263C90.4753 91.2993 90.9813 91.5089 91.5089 91.5089Z" fill="white"/>
<path d="M91.5089 101.456H95.4875C96.0151 101.456 96.5211 101.247 96.8942 100.874C97.2672 100.5 97.4768 99.9945 97.4768 99.4669C97.4768 98.9393 97.2672 98.4333 96.8942 98.0602C96.5211 97.6871 96.0151 97.4775 95.4875 97.4775H91.5089C90.9813 97.4775 90.4753 97.6871 90.1022 98.0602C89.7291 98.4333 89.5195 98.9393 89.5195 99.4669C89.5195 99.9945 89.7291 100.5 90.1022 100.874C90.4753 101.247 90.9813 101.456 91.5089 101.456Z" fill="white"/>
<path d="M103.444 101.456H107.423C107.951 101.456 108.457 101.247 108.83 100.874C109.203 100.5 109.412 99.9945 109.412 99.4669C109.412 98.9393 109.203 98.4333 108.83 98.0602C108.457 97.6871 107.951 97.4775 107.423 97.4775H103.444C102.917 97.4775 102.411 97.6871 102.038 98.0602C101.665 98.4333 101.455 98.9393 101.455 99.4669C101.455 99.9945 101.665 100.5 102.038 100.874C102.411 101.247 102.917 101.456 103.444 101.456Z" fill="white"/>
<path d="M57.6905 47.7443H61.6691C62.1967 47.7443 62.7027 47.5347 63.0758 47.1616C63.4489 46.7885 63.6585 46.2826 63.6585 45.7549C63.6585 45.2273 63.4489 44.7214 63.0758 44.3483C62.7027 43.9752 62.1967 43.7656 61.6691 43.7656H57.6905C57.1629 43.7656 56.6569 43.9752 56.2838 44.3483C55.9108 44.7214 55.7012 45.2273 55.7012 45.7549C55.7012 46.2826 55.9108 46.7885 56.2838 47.1616C56.6569 47.5347 57.1629 47.7443 57.6905 47.7443Z" fill="white"/>
<path d="M57.6905 57.6906H61.6691C62.1967 57.6906 62.7027 57.481 63.0758 57.1079C63.4489 56.7348 63.6585 56.2288 63.6585 55.7012C63.6585 55.1736 63.4489 54.6676 63.0758 54.2946C62.7027 53.9215 62.1967 53.7119 61.6691 53.7119H57.6905C57.1629 53.7119 56.6569 53.9215 56.2838 54.2946C55.9108 54.6676 55.7012 55.1736 55.7012 55.7012C55.7012 56.2288 55.9108 56.7348 56.2838 57.1079C56.6569 57.481 57.1629 57.6906 57.6905 57.6906Z" fill="white"/>
<path d="M57.6905 67.6369H61.6691C62.1967 67.6369 62.7027 67.4273 63.0758 67.0542C63.4489 66.6811 63.6585 66.1751 63.6585 65.6475C63.6585 65.1199 63.4489 64.6139 63.0758 64.2409C62.7027 63.8678 62.1967 63.6582 61.6691 63.6582H57.6905C57.1629 63.6582 56.6569 63.8678 56.2838 64.2409C55.9108 64.6139 55.7012 65.1199 55.7012 65.6475C55.7012 66.1751 55.9108 66.6811 56.2838 67.0542C56.6569 67.4273 57.1629 67.6369 57.6905 67.6369Z" fill="white"/>
<path d="M57.6905 77.5841H61.6691C62.1967 77.5841 62.7027 77.3745 63.0758 77.0015C63.4489 76.6284 63.6585 76.1224 63.6585 75.5948C63.6585 75.0672 63.4489 74.5612 63.0758 74.1881C62.7027 73.8151 62.1967 73.6055 61.6691 73.6055H57.6905C57.1629 73.6055 56.6569 73.8151 56.2838 74.1881C55.9108 74.5612 55.7012 75.0672 55.7012 75.5948C55.7012 76.1224 55.9108 76.6284 56.2838 77.0015C56.6569 77.3745 57.1629 77.5841 57.6905 77.5841Z" fill="white"/>
<path d="M69.626 47.7443H73.6047C74.1323 47.7443 74.6383 47.5347 75.0114 47.1616C75.3844 46.7885 75.594 46.2826 75.594 45.7549C75.594 45.2273 75.3844 44.7214 75.0114 44.3483C74.6383 43.9752 74.1323 43.7656 73.6047 43.7656H69.626C69.0984 43.7656 68.5924 43.9752 68.2194 44.3483C67.8463 44.7214 67.6367 45.2273 67.6367 45.7549C67.6367 46.2826 67.8463 46.7885 68.2194 47.1616C68.5924 47.5347 69.0984 47.7443 69.626 47.7443Z" fill="white"/>
<path d="M69.626 57.6906H73.6047C74.1323 57.6906 74.6383 57.481 75.0114 57.1079C75.3844 56.7348 75.594 56.2288 75.594 55.7012C75.594 55.1736 75.3844 54.6676 75.0114 54.2946C74.6383 53.9215 74.1323 53.7119 73.6047 53.7119H69.626C69.0984 53.7119 68.5924 53.9215 68.2194 54.2946C67.8463 54.6676 67.6367 55.1736 67.6367 55.7012C67.6367 56.2288 67.8463 56.7348 68.2194 57.1079C68.5924 57.481 69.0984 57.6906 69.626 57.6906Z" fill="white"/>
<path d="M69.626 67.6369H73.6047C74.1323 67.6369 74.6383 67.4273 75.0114 67.0542C75.3844 66.6811 75.594 66.1751 75.594 65.6475C75.594 65.1199 75.3844 64.6139 75.0114 64.2409C74.6383 63.8678 74.1323 63.6582 73.6047 63.6582H69.626C69.0984 63.6582 68.5924 63.8678 68.2194 64.2409C67.8463 64.6139 67.6367 65.1199 67.6367 65.6475C67.6367 66.1751 67.8463 66.6811 68.2194 67.0542C68.5924 67.4273 69.0984 67.6369 69.626 67.6369Z" fill="white"/>
<path d="M69.626 77.5841H73.6047C74.1323 77.5841 74.6383 77.3745 75.0114 77.0015C75.3844 76.6284 75.594 76.1224 75.594 75.5948C75.594 75.0672 75.3844 74.5612 75.0114 74.1881C74.6383 73.8151 74.1323 73.6055 73.6047 73.6055H69.626C69.0984 73.6055 68.5924 73.8151 68.2194 74.1881C67.8463 74.5612 67.6367 75.0672 67.6367 75.5948C67.6367 76.1224 67.8463 76.6284 68.2194 77.0015C68.5924 77.3745 69.0984 77.5841 69.626 77.5841Z" fill="white"/>
<path d="M27.8508 95.4878H23.8721C23.3445 95.4878 22.8385 95.6974 22.4655 96.0705C22.0924 96.4435 21.8828 96.9495 21.8828 97.4771C21.8828 98.0047 22.0924 98.5107 22.4655 98.8838C22.8385 99.2569 23.3445 99.4664 23.8721 99.4664H27.8508C28.3784 99.4664 28.8844 99.2569 29.2575 98.8838C29.6305 98.5107 29.8401 98.0047 29.8401 97.4771C29.8401 96.9495 29.6305 96.4435 29.2575 96.0705C28.8844 95.6974 28.3784 95.4878 27.8508 95.4878Z" fill="white"/>
<path d="M27.8508 65.6475H23.8721C23.3445 65.6475 22.8385 65.857 22.4655 66.2301C22.0924 66.6032 21.8828 67.1092 21.8828 67.6368C21.8828 68.1644 22.0924 68.6704 22.4655 69.0435C22.8385 69.4165 23.3445 69.6261 23.8721 69.6261H27.8508C28.3784 69.6261 28.8844 69.4165 29.2575 69.0435C29.6305 68.6704 29.8401 68.1644 29.8401 67.6368C29.8401 67.1092 29.6305 66.6032 29.2575 66.2301C28.8844 65.857 28.3784 65.6475 27.8508 65.6475Z" fill="white"/>
<path d="M51.7217 21.8827H57.6897V27.8507C57.6897 28.3783 57.8993 28.8843 58.2724 29.2574C58.6455 29.6304 59.1514 29.84 59.679 29.84C60.2066 29.84 60.7126 29.6304 61.0857 29.2574C61.4588 28.8843 61.6684 28.3783 61.6684 27.8507V21.8827H67.6363C68.1639 21.8827 68.6699 21.6731 69.043 21.3001C69.4161 20.927 69.6257 20.421 69.6257 19.8934C69.6257 19.3658 69.4161 18.8598 69.043 18.4867C68.6699 18.1137 68.1639 17.9041 67.6363 17.9041H61.6684V11.9361C61.6684 11.4085 61.4588 10.9025 61.0857 10.5294C60.7126 10.1564 60.2066 9.94678 59.679 9.94678C59.1514 9.94678 58.6455 10.1564 58.2724 10.5294C57.8993 10.9025 57.6897 11.4085 57.6897 11.9361V17.9041H51.7217C51.1941 17.9041 50.6882 18.1137 50.3151 18.4867C49.942 18.8598 49.7324 19.3658 49.7324 19.8934C49.7324 20.421 49.942 20.927 50.3151 21.3001C50.6882 21.6731 51.1941 21.8827 51.7217 21.8827Z" fill="white"/>
</g>
</svg>
