<svg width="60" height="132" viewBox="0 0 60 132" fill="none" xmlns="http://www.w3.org/2000/svg">
<path d="M42.0974 30.7414C49.2962 30.7414 55.0552 36.4997 55.0552 43.6975C55.0552 45.7768 55.0552 76.3275 55.0552 76.3275C55.0552 78.7268 53.1356 80.6462 50.736 80.6462C48.3364 80.6462 46.4167 78.7268 46.4167 76.3275V44.1773C46.4167 43.3776 45.7768 42.7377 44.9769 42.7377C44.1771 42.7377 43.5372 43.3776 43.5372 44.1773V79.0467V121.594C43.5372 124.793 40.9776 127.192 37.9381 127.192C34.7387 127.192 32.3391 124.633 32.3391 121.594V79.0467C32.3391 77.927 31.5392 77.1272 30.4194 77.1272C29.2996 77.1272 28.4998 77.927 28.4998 79.0467V121.594C28.4998 124.793 25.9402 127.192 22.9007 127.192C19.7013 127.192 17.3017 124.633 17.3017 121.594V79.0467V44.1773C17.3017 43.3776 16.6618 42.7377 15.8619 42.7377C15.062 42.7377 14.4222 43.3776 14.4222 44.1773V76.3275C14.4222 78.7268 12.5025 80.6462 10.1029 80.6462C7.70331 80.6462 5.78362 78.7268 5.78362 76.3275C5.78362 76.3275 5.78362 45.7768 5.78362 43.6975C5.78362 36.4997 11.5426 30.7414 18.7414 30.7414H42.0974ZM42.0974 25.9429H17.9416C8.18322 25.9429 0.18457 33.9404 0.18457 43.6975V76.3275C0.18457 81.4459 4.34388 85.4447 9.30304 85.4447C10.2629 85.4447 11.0627 85.2848 11.8626 85.1248V121.434C11.8626 127.192 16.5018 131.831 22.2608 131.831C25.3003 131.831 27.8599 130.551 29.7795 128.632C31.6992 130.711 34.4188 131.831 37.2983 131.831C43.0573 131.831 47.6965 127.192 47.6965 121.434V85.2847C48.4964 85.6047 49.4562 85.6047 50.256 85.6047C55.3752 85.6047 59.3745 81.4459 59.3745 76.4874V43.6975C59.3745 38.8989 57.4548 34.4203 54.0954 31.0613C51.3759 27.8623 46.8966 25.9429 42.0974 25.9429Z" fill="white"/>
<path d="M30.0988 5.78877C35.8578 5.78877 40.497 10.4274 40.497 16.1856C40.497 21.9438 35.8578 26.5824 30.0988 26.5824C24.3398 26.5824 19.7006 21.9438 19.7006 16.1856C19.7006 10.4274 24.3398 5.78877 30.0988 5.78877ZM30.0988 0.990234C21.7802 0.990234 14.9014 7.86813 14.9014 16.1856C14.9014 24.5031 21.7802 31.381 30.0988 31.381C38.4174 31.381 45.2962 24.5031 45.2962 16.1856C45.2962 7.86813 38.4174 0.990234 30.0988 0.990234Z" fill="white"/>
</svg>
