<svg width="74" height="68" viewBox="0 0 74 68" fill="none" xmlns="http://www.w3.org/2000/svg">
<path d="M72.7241 29.0439H53.6653V26.2932H64.5101C65.2144 26.2932 65.786 25.7216 65.786 25.0173V9.26805C65.786 8.56377 65.2144 7.99219 64.5101 7.99219H34.4891C33.7848 7.99219 33.2132 8.56377 33.2132 9.26805V25.0173C33.2132 25.7216 33.7848 26.2932 34.4891 26.2932H45.9719V29.0439H30.4293V24.0221C30.4293 18.3573 25.8209 13.7489 20.1561 13.7489C14.4912 13.7489 9.88283 18.3573 9.88283 24.0221V29.0439H1.27586C0.571586 29.0439 0 29.6155 0 30.3198V45.5383C0 46.2425 0.571586 46.8141 1.27586 46.8141H5.06262V66.0439C5.06262 66.7482 5.63421 67.3198 6.33848 67.3198H67.5799C68.2841 67.3198 68.8557 66.7482 68.8557 66.0439V46.8141H72.7241C73.4284 46.8141 74 46.2425 74 45.5383V30.3198C74 29.6155 73.4284 29.0439 72.7241 29.0439ZM35.765 10.5439H49.6974L43.1114 18.5869C42.6648 19.133 42.7439 19.9368 43.29 20.3834C43.5273 20.5773 43.8131 20.6717 44.0963 20.6717C44.4663 20.6717 44.8312 20.5109 45.0839 20.2047L52.9942 10.5439H55.6225L52.1777 14.7492C51.7311 15.2952 51.8102 16.099 52.3563 16.5456C52.5936 16.7395 52.8794 16.8339 53.1626 16.8339C53.5326 16.8339 53.8975 16.6732 54.1501 16.3669L58.9193 10.5439H63.2343V23.7414H35.765V10.5439ZM48.5236 26.2932H51.1161V29.0439H48.5236V26.2932ZM12.4346 24.0221C12.4346 19.7658 15.8972 16.3006 20.1561 16.3006C24.4149 16.3006 27.8776 19.7633 27.8776 24.0221V29.0439H12.4346V24.0221ZM66.304 59.5983H21.6846C20.9803 59.5983 20.4087 60.1698 20.4087 60.8741C20.4087 61.5784 20.9803 62.15 21.6846 62.15H66.3066V64.768H7.6169V46.8141H66.3066V59.5983H66.304ZM71.4483 44.2624H67.7304C67.6768 44.2573 67.6334 44.2318 67.5799 44.2318H6.33848C6.2849 44.2318 6.24152 44.2547 6.19048 44.2624H2.55172V39.2049H42.0907C42.795 39.2049 43.3666 38.6333 43.3666 37.929C43.3666 37.2247 42.795 36.6532 42.0907 36.6532H2.55172V31.5956H71.4483V44.2624Z" fill="white"/>
<path d="M20.1575 12.7994C23.6866 12.7994 26.5573 9.92876 26.5573 6.39972C26.5573 2.87069 23.6866 0 20.1575 0C16.6285 0 13.7578 2.87069 13.7578 6.39972C13.7578 9.92876 16.6285 12.7994 20.1575 12.7994ZM20.1575 2.55172C22.2806 2.55172 24.0055 4.27669 24.0055 6.39972C24.0055 8.52276 22.278 10.2477 20.1575 10.2477C18.0371 10.2477 16.3095 8.52276 16.3095 6.39972C16.3095 4.27669 18.0345 2.55172 20.1575 2.55172Z" fill="white"/>
<path d="M46.4213 36.6533H45.4516C44.7474 36.6533 44.1758 37.2249 44.1758 37.9292C44.1758 38.6335 44.7474 39.205 45.4516 39.205H46.4213C47.1256 39.205 47.6972 38.6335 47.6972 37.9292C47.6972 37.2249 47.1281 36.6533 46.4213 36.6533Z" fill="white"/>
</svg>
