<svg width="80" height="99" viewBox="0 0 80 99" fill="none" xmlns="http://www.w3.org/2000/svg">
<path d="M76.5103 20.431C74.7483 18.358 71.8453 17.114 68.7353 17.114H67.5523C69.5413 15.305 70.8083 12.712 70.8083 9.847C70.8093 4.457 66.3513 0 60.9603 0C55.5693 0 51.1123 4.457 51.1123 9.847C51.1123 12.712 52.3793 15.305 54.3693 17.114H53.0823C53.0073 17.114 52.9343 17.124 52.8583 17.125C53.1303 18.121 53.2883 19.162 53.3063 20.238C53.4043 20.235 53.5003 20.223 53.6003 20.223H68.7353C73.4003 20.223 77.1323 23.955 77.1323 28.619C77.1323 29.966 77.1323 49.764 77.1323 49.764C77.1323 51.319 75.8883 52.563 74.3333 52.563C72.7783 52.563 71.5343 51.319 71.5343 49.764V28.93C71.5343 28.412 71.1193 27.997 70.6013 27.997C70.0833 27.997 69.6683 28.412 69.6683 28.93V51.526V79.098C69.6683 81.171 68.0093 82.726 66.0403 82.726C63.9673 82.726 62.4123 81.068 62.4123 79.098V61.086C62.2643 63.227 61.3423 65.155 59.9243 66.597V79.098C59.9243 81.171 58.2653 82.726 56.2963 82.726C55.7853 82.726 55.3063 82.623 54.8733 82.442V85.649C55.2033 85.698 55.5383 85.732 55.8813 85.732C57.8513 85.732 59.5093 84.903 60.7533 83.659C61.9973 85.007 63.7593 85.732 65.6253 85.732C69.3573 85.732 72.3633 82.726 72.3633 78.995V55.569C72.8813 55.776 73.5033 55.776 74.0223 55.776C77.3393 55.776 79.9313 53.081 79.9313 49.868V28.619C79.9313 25.51 78.6873 22.607 76.5103 20.431ZM60.9603 16.585C57.2283 16.585 54.2223 13.579 54.2223 9.848C54.2223 6.116 57.2283 3.111 60.9603 3.111C64.6923 3.111 67.6983 6.117 67.6983 9.848C67.6993 13.579 64.6923 16.585 60.9603 16.585Z" fill="white"/>
<path d="M24.99 82.675C24.817 82.7 24.645 82.726 24.466 82.726C22.393 82.726 20.838 81.068 20.838 79.098V67.294C19.799 66.493 18.944 65.466 18.35 64.284V79.098C18.35 81.171 16.691 82.726 14.722 82.726C12.649 82.726 11.094 81.068 11.094 79.098V51.527V28.93C11.094 28.412 10.679 27.997 10.161 27.997C9.643 27.997 9.228 28.412 9.228 28.93V49.764C9.228 51.319 7.984 52.563 6.429 52.563C4.874 52.563 3.63 51.319 3.63 49.764C3.63 49.764 3.63 29.966 3.63 28.619C3.63 23.955 7.362 20.223 12.027 20.223H26.973C26.993 19.152 27.15 18.117 27.42 17.126C27.334 17.124 27.249 17.113 27.163 17.113H25.98C27.969 15.304 29.236 12.711 29.236 9.84602C29.236 4.45602 24.778 -0.000976562 19.388 -0.000976562C13.997 -0.000976562 9.54 4.45602 9.54 9.84602C9.54 12.711 10.807 15.304 12.797 17.113H11.51C5.183 17.114 0 22.296 0 28.619V49.764C0 53.081 2.695 55.672 5.909 55.672C6.531 55.672 7.049 55.568 7.568 55.465V78.994C7.568 82.726 10.574 85.731 14.306 85.731C16.276 85.731 17.934 84.902 19.178 83.658C20.422 85.006 22.184 85.731 24.05 85.731C24.37 85.731 24.681 85.701 24.989 85.659V82.675H24.99ZM12.647 9.84702C12.647 6.11502 15.653 3.11002 19.385 3.11002C23.117 3.11002 26.123 6.11602 26.123 9.84702C26.123 13.578 23.117 16.584 19.385 16.584C15.654 16.585 12.647 13.579 12.647 9.84702Z" fill="white"/>
<path d="M56.4869 29.7721C54.6189 27.5751 51.5429 26.2571 48.2469 26.2571H46.9929C49.1009 24.3401 50.4439 21.5921 50.4439 18.5561C50.4439 12.8441 45.7199 8.12012 40.0069 8.12012C34.2939 8.12012 29.5699 12.8431 29.5699 18.5561C29.5699 21.5921 30.9129 24.3401 33.0209 26.2571H31.6569C24.9549 26.2571 19.4619 31.7501 19.4619 38.4501V60.8591C19.4619 64.3741 22.3189 67.1201 25.7239 67.1201C26.3829 67.1201 26.9319 67.0101 27.4819 66.9001V91.8361C27.4819 95.7911 30.6679 98.9761 34.6229 98.9761C36.7109 98.9761 38.4679 98.0971 39.7869 96.7791C41.1049 98.2071 42.9729 98.9761 44.9509 98.9761C48.9059 98.9761 52.0919 95.7901 52.0919 91.8361V67.0111C52.6409 67.2311 53.3009 67.2311 53.8499 67.2311C57.3659 67.2311 60.1119 64.3751 60.1119 60.9701V38.4501C60.1129 35.1541 58.7939 32.0791 56.4869 29.7721ZM40.0079 11.4151C43.9629 11.4151 47.1489 14.6011 47.1489 18.5551C47.1489 22.5101 43.9629 25.6951 40.0079 25.6951C36.0529 25.6951 32.8669 22.5091 32.8669 18.5551C32.8659 14.6011 36.0519 11.4151 40.0079 11.4151ZM57.1459 60.8591C57.1459 62.5071 55.8279 63.8251 54.1799 63.8251C52.5319 63.8251 51.2139 62.5071 51.2139 60.8591V38.7791C51.2139 38.2301 50.7739 37.7901 50.2249 37.7901C49.6759 37.7901 49.2359 38.2291 49.2359 38.7791V62.7261V91.9461C49.2359 94.1431 47.4779 95.7911 45.3909 95.7911C43.1939 95.7911 41.5459 94.0331 41.5459 91.9461V62.7261C41.5459 61.9571 40.9969 61.4081 40.2279 61.4081C39.4589 61.4081 38.9099 61.9571 38.9099 62.7261V91.9461C38.9099 94.1431 37.1519 95.7911 35.0649 95.7911C32.8679 95.7911 31.2199 94.0331 31.2199 91.9461V62.7261V38.7791C31.2199 38.2301 30.7799 37.7901 30.2309 37.7901C29.6819 37.7901 29.2419 38.2291 29.2419 38.7791V60.8591C29.2419 62.5071 27.9239 63.8251 26.2759 63.8251C24.6279 63.8251 23.3099 62.5071 23.3099 60.8591C23.3099 60.8591 23.3099 39.8781 23.3099 38.4501C23.3099 33.5071 27.2649 29.5521 32.2089 29.5521H48.2489C53.1929 29.5521 57.1479 33.5071 57.1479 38.4501C57.1459 39.8781 57.1459 60.8591 57.1459 60.8591Z" fill="white"/>
</svg>
