<svg width="89" height="130" viewBox="0 0 89 130" fill="none" xmlns="http://www.w3.org/2000/svg">
<path d="M77.7819 16.6787H53.946V21.1573H77.7819C81.4613 21.1573 84.3408 24.1964 84.3408 27.7153V118.568C84.3408 122.246 81.3013 125.126 77.7819 125.126H11.2333C7.55388 125.126 4.67436 122.087 4.67436 118.568V27.7153C4.67436 24.0365 7.71385 21.1573 11.2333 21.1573H34.9092V16.6787H11.0733C4.9943 16.6787 0.0351562 21.6372 0.0351562 27.7153V118.568C0.0351562 124.646 4.9943 129.604 11.0733 129.604H77.622C83.7009 129.604 88.6601 124.646 88.6601 118.568V27.7153C88.6601 21.6372 83.7009 16.6787 77.7819 16.6787Z" fill="white"/>
<path d="M60.9841 24.9961H53.9453V29.4747H60.9841V24.9961Z" fill="white"/>
<path d="M35.069 24.9961H28.0303V29.4747H35.069V24.9961Z" fill="white"/>
<path d="M51.7064 30.4346H37.1488V29.3149H34.9092V32.514H53.946V29.3149H51.7064V30.4346Z" fill="white"/>
<path d="M37.1488 2.60307H51.7064V16.6788H53.946V0.36377H34.9092V16.6788H37.1488V2.60307Z" fill="white"/>
<path d="M37.1488 21.1572H34.9092V24.996H37.1488V21.1572Z" fill="white"/>
<path d="M53.9467 21.1572H51.707V24.996H53.9467V21.1572Z" fill="white"/>
<path d="M53.9467 16.6787H51.707V21.1573H53.9467V16.6787Z" fill="white"/>
<path d="M37.1488 16.6787H34.9092V21.1573H37.1488V16.6787Z" fill="white"/>
<path d="M53.9467 24.9961H51.707V29.4747H53.9467V24.9961Z" fill="white"/>
<path d="M37.1488 24.9961H34.9092V29.4747H37.1488V24.9961Z" fill="white"/>
<path d="M51.7064 21.1572H49.4668V24.996H51.7064V21.1572Z" fill="white"/>
<path d="M39.388 4.84236H49.4663V16.6787H51.7059V2.60303H37.1484V16.6787H39.388V4.84236Z" fill="white"/>
<path d="M51.7059 29.3149H37.1484V30.4346H51.7059V29.3149Z" fill="white"/>
<path d="M39.3881 21.1572H37.1484V24.996H39.3881V21.1572Z" fill="white"/>
<path d="M51.7064 16.6787H49.4668V21.1573H51.7064V16.6787Z" fill="white"/>
<path d="M39.3881 16.6787H37.1484V21.1573H39.3881V16.6787Z" fill="white"/>
<path d="M49.4663 28.1951H39.388V24.9961H37.1484V29.3148H51.7059V24.9961H49.4663V28.1951Z" fill="white"/>
<path d="M35.2291 66.9033C35.2291 61.7848 39.3884 57.7861 44.3475 57.7861C49.3067 57.7861 53.466 61.9448 53.466 66.9033C53.466 71.8618 49.3067 76.0205 44.3475 76.0205C47.387 76.0205 50.2665 76.5004 52.8261 77.3001C55.8656 74.7409 57.7852 71.062 57.7852 66.7433C57.7852 59.2256 51.7063 53.1475 44.1875 53.1475C36.6688 53.1475 30.5898 59.2256 30.5898 66.7433C30.5898 71.062 32.5095 74.7409 35.549 77.3001C38.2685 76.5004 41.1481 76.0205 44.0276 76.0205C39.3884 76.0205 35.2291 71.8618 35.2291 66.9033Z" fill="white"/>
<path d="M44.348 80.3394C56.5059 80.3394 66.5842 89.6165 67.704 101.613H20.9919C22.1117 89.7765 32.19 80.3394 44.348 80.3394C41.1485 80.3394 38.109 79.2197 35.8694 77.3003C24.6713 80.9792 16.5127 91.376 16.5127 103.852V106.091H72.1832V103.852C72.1832 91.536 64.0247 80.9792 52.8265 77.3003C50.5869 79.2197 47.7074 80.3394 44.348 80.3394Z" fill="white"/>
<path d="M52.9864 77.3001C50.2668 76.5003 47.3874 76.0205 44.5078 76.0205C41.4684 76.0205 38.5889 76.5003 36.0293 77.3001C38.4289 79.2195 41.3084 80.3391 44.5078 80.3391C47.7073 80.3391 50.5868 79.2195 52.9864 77.3001Z" fill="white"/>
<path d="M77.7819 16.6788H53.946V0.36377H34.9092V16.6788H11.0733C4.9943 16.6788 0.0351562 21.6373 0.0351562 27.7154V118.568C0.0351562 124.646 4.9943 129.604 11.0733 129.604H77.622C83.7009 129.604 88.6601 124.646 88.6601 118.568V27.7154C88.6601 21.6373 83.7009 16.6788 77.7819 16.6788ZM39.3884 24.9962V21.1574V16.6788V4.84241H49.4667V16.6788V21.1574V24.9962V28.1953H39.3884V24.9962ZM84.3408 118.568C84.3408 122.247 81.3013 125.126 77.7819 125.126H11.2333C7.55388 125.126 4.67436 122.087 4.67436 118.568V27.7154C4.67436 24.0365 7.71385 21.1574 11.2333 21.1574H34.9092V24.9962H27.8704V29.4749H34.9092V32.6739H53.786V29.4749H60.8248V24.9962H53.786V21.1574H77.622C81.3013 21.1574 84.1808 24.1965 84.1808 27.7154L84.3408 118.568Z" fill="white"/>
<path d="M52.9853 77.3001C56.0248 74.7409 57.9445 71.062 57.9445 66.7433C57.9445 59.2256 51.8655 53.1475 44.3468 53.1475C36.8281 53.1475 30.7491 59.2256 30.7491 66.7433C30.7491 71.062 32.6688 74.7409 35.7083 77.3001C24.5102 80.979 16.3516 91.3758 16.3516 103.852V106.091H72.0221V103.852C72.342 91.5358 64.1834 80.979 52.9853 77.3001ZM35.2284 66.9033C35.2284 61.7848 39.3876 57.7861 44.3468 57.7861C49.3059 57.7861 53.4653 61.9448 53.4653 66.9033C53.4653 71.8618 49.3059 76.0205 44.3468 76.0205C39.3876 76.0205 35.2284 71.8618 35.2284 66.9033ZM20.9908 101.613C22.1106 89.7763 32.1889 80.3392 44.3468 80.3392C56.5047 80.3392 66.583 89.6164 67.7028 101.613H20.9908Z" fill="white"/>
</svg>
