<svg width="554" height="253" viewBox="0 0 554 253" fill="none" xmlns="http://www.w3.org/2000/svg">
<path d="M43.465 149.045C66.3655 149.045 84.93 130.455 84.93 107.523C84.93 84.5903 66.3655 66 43.465 66C20.5645 66 2 84.5903 2 107.523C2 130.455 20.5645 149.045 43.465 149.045Z" stroke="#5F6D8B" stroke-width="4" stroke-miterlimit="10" stroke-linecap="round"/>
<path d="M43.4648 149.045V207.981" stroke="#5F6D8B" stroke-width="4" stroke-miterlimit="10" stroke-linecap="round"/>
<path d="M25.2959 187.443H61.6335" stroke="#5F6D8B" stroke-width="4" stroke-miterlimit="10" stroke-linecap="round"/>
<path d="M25.33 116C26.41 116 26.95 116.06 27.13 116.42C27.25 116.66 27.25 116.72 27.55 116.72C27.91 116.72 27.85 116.66 27.97 116.42L30.01 111.26C30.1 111.02 30.01 110.9 29.71 110.78C29.41 110.6 29.35 110.66 29.17 110.96C28.51 112.04 27.73 113.24 25.75 113.24H20.23C21.25 112.28 23.05 110.84 24.97 108.92C27.97 105.86 29.11 103.52 29.11 100.94C29.11 97.85 26.53 95.51 23.59 95.51C19.39 95.51 17.83 98.87 17.35 100.01C17.23 100.31 17.29 100.37 17.35 100.43L17.83 100.67C17.95 100.73 18.07 100.73 18.19 100.49C18.79 99.47 19.81 98.03 21.91 97.97C24.01 97.91 25.39 99.47 25.51 101.81C25.57 104.36 24.37 106.7 22.33 109.16C19.99 111.86 17.41 114.2 16.21 115.34C16.03 115.52 15.97 115.7 16.03 115.94C16.15 116.09 16.21 116.09 16.39 116.09C16.81 116.09 17.2 116.06 17.59 116.03C17.98 116.03 18.4 116 18.79 116H25.33ZM35.8 99.02H42.25C43.15 99.02 43.33 98.9 43.51 98.42L44.59 94.76C44.65 94.52 44.53 94.46 44.29 94.34C43.99 94.19 43.9 94.28 43.81 94.46C43.27 95.48 43.03 95.96 41.95 95.96H35.26C34.9 95.96 34.84 96.08 34.78 96.44L33.7 105.38C33.67 105.62 33.76 105.86 34 105.86H34.54C35.5 105.86 36.94 106.04 38.23 106.61C39.79 107.3 40.66 108.74 40.66 110.66C40.66 113.54 38.2 114.98 36.28 114.98C35.38 114.98 34.57 114.71 34.12 114.47C33.58 114.17 33.1 113.87 32.5 113.81C32.08 113.81 31.72 114.17 31.72 114.77C31.72 115.61 33.4 116.45 35.5 116.45C40.09 116.45 43.69 113.21 43.63 109.07C43.63 106.13 41.95 104.15 39.28 103.34C38.14 103.01 35.92 102.77 35.26 102.83L35.8 99.02ZM51.19 107.06C50.77 107.06 50.05 106.58 49.75 105.74C49.51 104.9 49.39 103.64 49.39 102.08C49.39 100.79 49.45 98.63 49.87 97.55C50.17 96.83 50.71 96.53 51.19 96.53C52.51 96.53 52.99 98.51 52.99 101.45C52.99 103.76 52.93 105.14 52.69 105.92C52.39 106.7 51.85 107.06 51.19 107.06ZM63.55 95.57C63.46 95.51 63.37 95.51 63.31 95.51C63.22 95.51 63.13 95.6 63.07 95.72L51.01 115.28C50.86 115.46 50.8 115.58 50.8 115.67C50.8 115.76 50.89 115.82 51.01 115.91L51.64 116.36C51.73 116.42 51.85 116.45 51.91 116.45C52 116.45 52.09 116.33 52.21 116.12L64.33 96.5C64.39 96.38 64.48 96.26 64.48 96.2C64.48 96.14 64.45 96.08 64.3 95.99L63.55 95.57ZM51.13 108.08C54.13 108.08 55.75 105.74 55.81 101.72C55.75 99.17 54.91 95.51 51.31 95.51C47.95 95.51 46.63 98.75 46.63 102.05C46.63 103.76 47.23 108.08 51.13 108.08ZM63.91 116.27C66.91 116.27 68.53 113.93 68.59 109.91C68.53 107.36 67.69 103.7 64.09 103.7C60.73 103.7 59.41 106.94 59.41 110.24C59.41 111.95 60.01 116.27 63.91 116.27ZM63.97 115.25C63.55 115.25 62.83 114.77 62.53 113.93C62.29 113.09 62.17 111.83 62.17 110.27C62.17 108.98 62.23 106.82 62.65 105.74C62.95 105.02 63.49 104.72 63.97 104.72C65.29 104.72 65.77 106.7 65.77 109.64C65.77 111.95 65.71 113.33 65.47 114.11C65.17 114.89 64.63 115.25 63.97 115.25Z" fill="#5F6D8B"/>
<path d="M133.7 144.96C132.14 144.96 131.9 144.78 131.96 144.36C132.02 143.94 131.9 143.82 131.6 143.82C131.24 143.82 131.18 143.88 131.12 144.06L129.26 149.28C129.14 149.58 129.14 149.58 129.44 149.76C129.68 149.88 129.86 149.94 130.04 149.7C130.88 148.5 131.24 147.9 133.04 147.9H140.06C138.56 150.54 133.22 159.78 132.68 160.74C132.2 161.64 131.54 163.02 131.54 163.92C131.54 164.79 132.14 165.45 133.04 165.45C134.12 165.45 134.87 164.67 135.2 163.47C136.16 159.96 137.66 156.06 138.68 153.54C139.88 150.54 142.04 146.64 142.34 146.1C142.58 145.8 142.76 145.44 142.76 145.26C142.76 145.02 142.58 144.96 142.46 144.96H133.7ZM147.8 148.02H154.25C155.15 148.02 155.33 147.9 155.51 147.42L156.59 143.76C156.65 143.52 156.53 143.46 156.29 143.34C155.99 143.19 155.9 143.28 155.81 143.46C155.27 144.48 155.03 144.96 153.95 144.96H147.26C146.9 144.96 146.84 145.08 146.78 145.44L145.7 154.38C145.67 154.62 145.76 154.86 146 154.86H146.54C147.5 154.86 148.94 155.04 150.23 155.61C151.79 156.3 152.66 157.74 152.66 159.66C152.66 162.54 150.2 163.98 148.28 163.98C147.38 163.98 146.57 163.71 146.12 163.47C145.58 163.17 145.1 162.87 144.5 162.81C144.08 162.81 143.72 163.17 143.72 163.77C143.72 164.61 145.4 165.45 147.5 165.45C152.09 165.45 155.69 162.21 155.63 158.07C155.63 155.13 153.95 153.15 151.28 152.34C150.14 152.01 147.92 151.77 147.26 151.83L147.8 148.02ZM163.19 156.06C162.77 156.06 162.05 155.58 161.75 154.74C161.51 153.9 161.39 152.64 161.39 151.08C161.39 149.79 161.45 147.63 161.87 146.55C162.17 145.83 162.71 145.53 163.19 145.53C164.51 145.53 164.99 147.51 164.99 150.45C164.99 152.76 164.93 154.14 164.69 154.92C164.39 155.7 163.85 156.06 163.19 156.06ZM175.55 144.57C175.46 144.51 175.37 144.51 175.31 144.51C175.22 144.51 175.13 144.6 175.07 144.72L163.01 164.28C162.86 164.46 162.8 164.58 162.8 164.67C162.8 164.76 162.89 164.82 163.01 164.91L163.64 165.36C163.73 165.42 163.85 165.45 163.91 165.45C164 165.45 164.09 165.33 164.21 165.12L176.33 145.5C176.39 145.38 176.48 145.26 176.48 145.2C176.48 145.14 176.45 145.08 176.3 144.99L175.55 144.57ZM163.13 157.08C166.13 157.08 167.75 154.74 167.81 150.72C167.75 148.17 166.91 144.51 163.31 144.51C159.95 144.51 158.63 147.75 158.63 151.05C158.63 152.76 159.23 157.08 163.13 157.08ZM175.91 165.27C178.91 165.27 180.53 162.93 180.59 158.91C180.53 156.36 179.69 152.7 176.09 152.7C172.73 152.7 171.41 155.94 171.41 159.24C171.41 160.95 172.01 165.27 175.91 165.27ZM175.97 164.25C175.55 164.25 174.83 163.77 174.53 162.93C174.29 162.09 174.17 160.83 174.17 159.27C174.17 157.98 174.23 155.82 174.65 154.74C174.95 154.02 175.49 153.72 175.97 153.72C177.29 153.72 177.77 155.7 177.77 158.64C177.77 160.95 177.71 162.33 177.47 163.11C177.17 163.89 176.63 164.25 175.97 164.25Z" fill="#5F6D8B"/>
<path d="M154.465 196.557C177.365 196.557 195.93 177.967 195.93 155.034C195.93 132.102 177.365 113.512 154.465 113.512C131.565 113.512 113 132.102 113 155.034C113 177.967 131.565 196.557 154.465 196.557Z" stroke="#5F6D8B" stroke-width="4" stroke-miterlimit="10" stroke-linecap="round"/>
<path d="M225.086 84.3149L184.101 125.357" stroke="#5F6D8B" stroke-width="4" stroke-miterlimit="10" stroke-linecap="round"/>
<path d="M223.225 110.867L225.4 84L198.57 86.1779" stroke="#5F6D8B" stroke-width="4" stroke-miterlimit="10" stroke-linecap="round"/>
<path d="M436.179 134.89L381.166 50.1049C398.009 39.1573 416.097 33.7949 436.179 33.7949V134.89Z" fill="#5F6D8B" fill-opacity="0.25" stroke="white" stroke-width="2" stroke-miterlimit="10"/>
<path d="M436.179 134.89L338.612 161.055C327.061 117.911 343.737 74.432 381.165 50.105L436.179 134.89Z" fill="#5F6D8B" fill-opacity="0.25" stroke="white" stroke-width="2" stroke-miterlimit="10"/>
<path d="M436.178 134.89L443.224 235.739C394.253 239.166 351.317 208.515 338.611 161.056L436.178 134.89Z" fill="#5F6D8B" fill-opacity="0.25" stroke="white" stroke-width="2" stroke-miterlimit="10"/>
<path d="M437.179 135.715L550.851 113.601C563.054 176.434 522.053 237.272 459.275 249.485C454.253 250.462 450.361 250.975 445.257 251.332L437.179 135.715Z" fill="#5F6D8B" stroke="white" stroke-width="2" stroke-miterlimit="10"/>
<path d="M436.179 134.89L448.489 34.5483C492.785 39.9916 526.816 71.7541 535.331 115.6L436.179 134.89Z" fill="#5F6D8B" fill-opacity="0.25" stroke="white" stroke-width="2" stroke-miterlimit="10"/>
<path d="M436.179 134.89V33.7949C440.642 33.7949 444.059 34.0039 448.489 34.5484L436.179 134.89Z" fill="#5F6D8B" fill-opacity="0.25" stroke="white" stroke-width="2" stroke-miterlimit="10"/>
<circle cx="438" cy="135" r="54" fill="white"/>
<path d="M435.378 16.912L426.9 13.186V12.286L435.378 8.056V9.46L428.592 12.664L435.378 15.508V16.912ZM442.691 19H441.143V10.018C441.143 9.502 441.149 9.088 441.161 8.776C441.173 8.464 441.191 8.14 441.215 7.804C441.023 7.996 440.843 8.158 440.675 8.29C440.519 8.422 440.327 8.59 440.099 8.794L438.731 9.91L437.903 8.848L441.377 6.148H442.691V19ZM455.962 11.638C455.962 12.562 455.878 13.474 455.71 14.374C455.554 15.262 455.26 16.072 454.828 16.804C454.408 17.524 453.808 18.1 453.028 18.532C452.26 18.964 451.27 19.18 450.058 19.18C449.818 19.18 449.536 19.162 449.212 19.126C448.888 19.102 448.63 19.06 448.438 19V17.65C448.906 17.806 449.434 17.884 450.022 17.884C450.862 17.884 451.552 17.746 452.092 17.47C452.644 17.194 453.082 16.822 453.406 16.354C453.73 15.874 453.964 15.322 454.108 14.698C454.252 14.062 454.336 13.396 454.36 12.7H454.252C453.976 13.108 453.592 13.462 453.1 13.762C452.608 14.05 451.972 14.194 451.192 14.194C450.088 14.194 449.194 13.858 448.51 13.186C447.838 12.502 447.502 11.542 447.502 10.306C447.502 9.406 447.67 8.632 448.006 7.984C448.342 7.336 448.816 6.838 449.428 6.49C450.052 6.142 450.778 5.968 451.606 5.968C452.422 5.968 453.16 6.178 453.82 6.598C454.48 7.006 455.002 7.63 455.386 8.47C455.77 9.298 455.962 10.354 455.962 11.638ZM451.606 7.3C450.862 7.3 450.25 7.546 449.77 8.038C449.302 8.53 449.068 9.28 449.068 10.288C449.068 11.116 449.266 11.77 449.662 12.25C450.07 12.718 450.694 12.952 451.534 12.952C452.11 12.952 452.608 12.838 453.028 12.61C453.448 12.37 453.772 12.07 454 11.71C454.24 11.35 454.36 10.978 454.36 10.594C454.36 10.078 454.258 9.568 454.054 9.064C453.85 8.56 453.544 8.14 453.136 7.804C452.728 7.468 452.218 7.3 451.606 7.3Z" fill="#5F6D8B"/>
<path d="M399.9 62.508L406.686 59.682L399.9 56.46V55.056L408.378 59.286V60.186L399.9 63.912V62.508ZM410.291 60.51C410.291 59.586 410.369 58.68 410.525 57.792C410.693 56.892 410.987 56.082 411.407 55.362C411.839 54.63 412.439 54.048 413.207 53.616C413.975 53.184 414.965 52.968 416.177 52.968C416.429 52.968 416.705 52.98 417.005 53.004C417.317 53.028 417.569 53.07 417.761 53.13V54.48C417.545 54.408 417.299 54.354 417.023 54.318C416.747 54.282 416.477 54.264 416.213 54.264C415.385 54.264 414.695 54.402 414.143 54.678C413.591 54.954 413.153 55.332 412.829 55.812C412.517 56.292 412.289 56.844 412.145 57.468C412.001 58.092 411.911 58.758 411.875 59.466H411.983C412.259 59.046 412.643 58.692 413.135 58.404C413.627 58.104 414.257 57.954 415.025 57.954C416.141 57.954 417.041 58.296 417.725 58.98C418.409 59.652 418.751 60.612 418.751 61.86C418.751 63.204 418.379 64.26 417.635 65.028C416.903 65.796 415.913 66.18 414.665 66.18C413.849 66.18 413.111 65.976 412.451 65.568C411.791 65.16 411.263 64.536 410.867 63.696C410.483 62.856 410.291 61.794 410.291 60.51ZM414.647 64.848C415.403 64.848 416.015 64.608 416.483 64.128C416.951 63.636 417.185 62.88 417.185 61.86C417.185 61.044 416.975 60.396 416.555 59.916C416.147 59.436 415.529 59.196 414.701 59.196C414.137 59.196 413.645 59.316 413.225 59.556C412.805 59.784 412.475 60.084 412.235 60.456C412.007 60.816 411.893 61.182 411.893 61.554C411.893 62.07 411.995 62.586 412.199 63.102C412.403 63.606 412.709 64.026 413.117 64.362C413.525 64.686 414.035 64.848 414.647 64.848ZM429.016 59.556C429.016 60.948 428.872 62.136 428.584 63.12C428.296 64.104 427.834 64.86 427.198 65.388C426.574 65.916 425.752 66.18 424.732 66.18C423.28 66.18 422.206 65.598 421.51 64.434C420.826 63.258 420.484 61.632 420.484 59.556C420.484 58.164 420.622 56.976 420.898 55.992C421.186 55.008 421.642 54.258 422.266 53.742C422.89 53.214 423.712 52.95 424.732 52.95C426.172 52.95 427.246 53.532 427.954 54.696C428.662 55.848 429.016 57.468 429.016 59.556ZM422.068 59.556C422.068 61.32 422.266 62.64 422.662 63.516C423.07 64.392 423.76 64.83 424.732 64.83C425.692 64.83 426.376 64.398 426.784 63.534C427.204 62.658 427.414 61.332 427.414 59.556C427.414 57.804 427.204 56.49 426.784 55.614C426.376 54.738 425.692 54.3 424.732 54.3C423.76 54.3 423.07 54.738 422.662 55.614C422.266 56.49 422.068 57.804 422.068 59.556Z" fill="#5F6D8B"/>
<path d="M346.95 104.116C348.258 104.116 349.302 104.446 350.082 105.106C350.874 105.766 351.27 106.696 351.27 107.896C351.27 109.228 350.844 110.278 349.992 111.046C349.152 111.802 347.976 112.18 346.464 112.18C345.792 112.18 345.168 112.12 344.592 112C344.016 111.88 343.53 111.706 343.134 111.478V109.984C343.566 110.248 344.088 110.458 344.7 110.614C345.324 110.758 345.918 110.83 346.482 110.83C347.43 110.83 348.192 110.608 348.768 110.164C349.356 109.708 349.65 109.006 349.65 108.058C349.65 107.218 349.392 106.576 348.876 106.132C348.36 105.676 347.544 105.448 346.428 105.448C346.092 105.448 345.708 105.478 345.276 105.538C344.844 105.598 344.496 105.658 344.232 105.718L343.44 105.214L343.926 99.148H350.37V100.588H345.276L344.97 104.314C345.174 104.278 345.45 104.236 345.798 104.188C346.146 104.14 346.53 104.116 346.95 104.116ZM361.715 105.556C361.715 106.948 361.571 108.136 361.283 109.12C360.995 110.104 360.533 110.86 359.897 111.388C359.273 111.916 358.451 112.18 357.431 112.18C355.979 112.18 354.905 111.598 354.209 110.434C353.525 109.258 353.183 107.632 353.183 105.556C353.183 104.164 353.321 102.976 353.597 101.992C353.885 101.008 354.341 100.258 354.965 99.742C355.589 99.214 356.411 98.95 357.431 98.95C358.871 98.95 359.945 99.532 360.653 100.696C361.361 101.848 361.715 103.468 361.715 105.556ZM354.767 105.556C354.767 107.32 354.965 108.64 355.361 109.516C355.769 110.392 356.459 110.83 357.431 110.83C358.391 110.83 359.075 110.398 359.483 109.534C359.903 108.658 360.113 107.332 360.113 105.556C360.113 103.804 359.903 102.49 359.483 101.614C359.075 100.738 358.391 100.3 357.431 100.3C356.459 100.3 355.769 100.738 355.361 101.614C354.965 102.49 354.767 103.804 354.767 105.556ZM363.322 107.878V106.474H367.678V107.878H363.322ZM373.352 104.116C374.66 104.116 375.704 104.446 376.484 105.106C377.276 105.766 377.672 106.696 377.672 107.896C377.672 109.228 377.246 110.278 376.394 111.046C375.554 111.802 374.378 112.18 372.866 112.18C372.194 112.18 371.57 112.12 370.994 112C370.418 111.88 369.932 111.706 369.536 111.478V109.984C369.968 110.248 370.49 110.458 371.102 110.614C371.726 110.758 372.32 110.83 372.884 110.83C373.832 110.83 374.594 110.608 375.17 110.164C375.758 109.708 376.052 109.006 376.052 108.058C376.052 107.218 375.794 106.576 375.278 106.132C374.762 105.676 373.946 105.448 372.83 105.448C372.494 105.448 372.11 105.478 371.678 105.538C371.246 105.598 370.898 105.658 370.634 105.718L369.842 105.214L370.328 99.148H376.772V100.588H371.678L371.372 104.314C371.576 104.278 371.852 104.236 372.2 104.188C372.548 104.14 372.932 104.116 373.352 104.116ZM388.063 104.638C388.063 105.562 387.979 106.474 387.811 107.374C387.655 108.262 387.361 109.072 386.929 109.804C386.509 110.524 385.909 111.1 385.129 111.532C384.361 111.964 383.371 112.18 382.159 112.18C381.919 112.18 381.637 112.162 381.313 112.126C380.989 112.102 380.731 112.06 380.539 112V110.65C381.007 110.806 381.535 110.884 382.123 110.884C382.963 110.884 383.653 110.746 384.193 110.47C384.745 110.194 385.183 109.822 385.507 109.354C385.831 108.874 386.065 108.322 386.209 107.698C386.353 107.062 386.437 106.396 386.461 105.7H386.353C386.077 106.108 385.693 106.462 385.201 106.762C384.709 107.05 384.073 107.194 383.293 107.194C382.189 107.194 381.295 106.858 380.611 106.186C379.939 105.502 379.603 104.542 379.603 103.306C379.603 102.406 379.771 101.632 380.107 100.984C380.443 100.336 380.917 99.838 381.529 99.49C382.153 99.142 382.879 98.968 383.707 98.968C384.523 98.968 385.261 99.178 385.921 99.598C386.581 100.006 387.103 100.63 387.487 101.47C387.871 102.298 388.063 103.354 388.063 104.638ZM383.707 100.3C382.963 100.3 382.351 100.546 381.871 101.038C381.403 101.53 381.169 102.28 381.169 103.288C381.169 104.116 381.367 104.77 381.763 105.25C382.171 105.718 382.795 105.952 383.635 105.952C384.211 105.952 384.709 105.838 385.129 105.61C385.549 105.37 385.873 105.07 386.101 104.71C386.341 104.35 386.461 103.978 386.461 103.594C386.461 103.078 386.359 102.568 386.155 102.064C385.951 101.56 385.645 101.14 385.237 100.804C384.829 100.468 384.319 100.3 383.707 100.3Z" fill="#5F6D8B"/>
<path d="M477.36 87H468.864V85.686L472.23 82.284C472.866 81.636 473.406 81.06 473.85 80.556C474.306 80.052 474.648 79.56 474.876 79.08C475.104 78.6 475.218 78.066 475.218 77.478C475.218 76.77 475.008 76.236 474.588 75.876C474.168 75.504 473.622 75.318 472.95 75.318C472.314 75.318 471.762 75.426 471.294 75.642C470.826 75.858 470.346 76.158 469.854 76.542L469.008 75.48C469.512 75.06 470.088 74.706 470.736 74.418C471.396 74.118 472.134 73.968 472.95 73.968C474.15 73.968 475.098 74.274 475.794 74.886C476.49 75.498 476.838 76.332 476.838 77.388C476.838 78.06 476.7 78.69 476.424 79.278C476.148 79.866 475.764 80.448 475.272 81.024C474.78 81.6 474.204 82.206 473.544 82.842L470.862 85.488V85.56H477.36V87ZM487.715 80.556C487.715 81.948 487.571 83.136 487.283 84.12C486.995 85.104 486.533 85.86 485.897 86.388C485.273 86.916 484.451 87.18 483.431 87.18C481.979 87.18 480.905 86.598 480.209 85.434C479.525 84.258 479.183 82.632 479.183 80.556C479.183 79.164 479.321 77.976 479.597 76.992C479.885 76.008 480.341 75.258 480.965 74.742C481.589 74.214 482.411 73.95 483.431 73.95C484.871 73.95 485.945 74.532 486.653 75.696C487.361 76.848 487.715 78.468 487.715 80.556ZM480.767 80.556C480.767 82.32 480.965 83.64 481.361 84.516C481.769 85.392 482.459 85.83 483.431 85.83C484.391 85.83 485.075 85.398 485.483 84.534C485.903 83.658 486.113 82.332 486.113 80.556C486.113 78.804 485.903 77.49 485.483 76.614C485.075 75.738 484.391 75.3 483.431 75.3C482.459 75.3 481.769 75.738 481.361 76.614C480.965 77.49 480.767 78.804 480.767 80.556ZM489.322 82.878V81.474H493.678V82.878H489.322ZM503.762 87H495.266V85.686L498.632 82.284C499.268 81.636 499.808 81.06 500.252 80.556C500.708 80.052 501.05 79.56 501.278 79.08C501.506 78.6 501.62 78.066 501.62 77.478C501.62 76.77 501.41 76.236 500.99 75.876C500.57 75.504 500.024 75.318 499.352 75.318C498.716 75.318 498.164 75.426 497.696 75.642C497.228 75.858 496.748 76.158 496.256 76.542L495.41 75.48C495.914 75.06 496.49 74.706 497.138 74.418C497.798 74.118 498.536 73.968 499.352 73.968C500.552 73.968 501.5 74.274 502.196 74.886C502.892 75.498 503.24 76.332 503.24 77.388C503.24 78.06 503.102 78.69 502.826 79.278C502.55 79.866 502.166 80.448 501.674 81.024C501.182 81.6 500.606 82.206 499.946 82.842L497.264 85.488V85.56H503.762V87ZM514.063 79.638C514.063 80.562 513.979 81.474 513.811 82.374C513.655 83.262 513.361 84.072 512.929 84.804C512.509 85.524 511.909 86.1 511.129 86.532C510.361 86.964 509.371 87.18 508.159 87.18C507.919 87.18 507.637 87.162 507.313 87.126C506.989 87.102 506.731 87.06 506.539 87V85.65C507.007 85.806 507.535 85.884 508.123 85.884C508.963 85.884 509.653 85.746 510.193 85.47C510.745 85.194 511.183 84.822 511.507 84.354C511.831 83.874 512.065 83.322 512.209 82.698C512.353 82.062 512.437 81.396 512.461 80.7H512.353C512.077 81.108 511.693 81.462 511.201 81.762C510.709 82.05 510.073 82.194 509.293 82.194C508.189 82.194 507.295 81.858 506.611 81.186C505.939 80.502 505.603 79.542 505.603 78.306C505.603 77.406 505.771 76.632 506.107 75.984C506.443 75.336 506.917 74.838 507.529 74.49C508.153 74.142 508.879 73.968 509.707 73.968C510.523 73.968 511.261 74.178 511.921 74.598C512.581 75.006 513.103 75.63 513.487 76.47C513.871 77.298 514.063 78.354 514.063 79.638ZM509.707 75.3C508.963 75.3 508.351 75.546 507.871 76.038C507.403 76.53 507.169 77.28 507.169 78.288C507.169 79.116 507.367 79.77 507.763 80.25C508.171 80.718 508.795 80.952 509.635 80.952C510.211 80.952 510.709 80.838 511.129 80.61C511.549 80.37 511.873 80.07 512.101 79.71C512.341 79.35 512.461 78.978 512.461 78.594C512.461 78.078 512.359 77.568 512.155 77.064C511.951 76.56 511.645 76.14 511.237 75.804C510.829 75.468 510.319 75.3 509.707 75.3Z" fill="#5F6D8B"/>
<path d="M492.072 182.082C492.072 182.958 491.814 183.66 491.298 184.188C490.794 184.704 490.14 185.052 489.336 185.232V185.286C490.368 185.418 491.148 185.742 491.676 186.258C492.204 186.774 492.468 187.452 492.468 188.292C492.468 189.036 492.288 189.702 491.928 190.29C491.568 190.878 491.01 191.34 490.254 191.676C489.51 192.012 488.55 192.18 487.374 192.18C486.666 192.18 486.012 192.12 485.412 192C484.824 191.892 484.266 191.718 483.738 191.478V189.48C484.278 189.756 484.854 189.966 485.466 190.11C486.078 190.254 486.654 190.326 487.194 190.326C488.238 190.326 488.976 190.14 489.408 189.768C489.84 189.384 490.056 188.856 490.056 188.184C490.056 187.548 489.804 187.074 489.3 186.762C488.796 186.45 487.956 186.294 486.78 186.294H485.7V184.476H486.798C487.938 184.476 488.724 184.29 489.156 183.918C489.588 183.546 489.804 183.066 489.804 182.478C489.804 181.962 489.636 181.56 489.3 181.272C488.964 180.984 488.46 180.84 487.788 180.84C487.14 180.84 486.582 180.948 486.114 181.164C485.646 181.368 485.226 181.59 484.854 181.83L483.774 180.264C484.266 179.904 484.848 179.598 485.52 179.346C486.192 179.094 486.984 178.968 487.896 178.968C489.228 178.968 490.254 179.25 490.974 179.814C491.706 180.378 492.072 181.134 492.072 182.082ZM502.841 185.574C502.841 186.954 502.697 188.136 502.409 189.12C502.121 190.104 501.653 190.86 501.005 191.388C500.357 191.916 499.499 192.18 498.431 192.18C496.919 192.18 495.809 191.598 495.101 190.434C494.393 189.27 494.039 187.65 494.039 185.574C494.039 184.194 494.183 183.012 494.471 182.028C494.759 181.032 495.221 180.27 495.857 179.742C496.505 179.214 497.363 178.95 498.431 178.95C499.931 178.95 501.041 179.532 501.761 180.696C502.481 181.86 502.841 183.486 502.841 185.574ZM496.325 185.574C496.325 187.146 496.475 188.328 496.775 189.12C497.087 189.912 497.639 190.308 498.431 190.308C499.211 190.308 499.757 189.918 500.069 189.138C500.393 188.346 500.555 187.158 500.555 185.574C500.555 184.002 500.393 182.82 500.069 182.028C499.757 181.224 499.211 180.822 498.431 180.822C497.639 180.822 497.087 181.224 496.775 182.028C496.475 182.82 496.325 184.002 496.325 185.574ZM504.214 188.13V186.222H508.786V188.13H504.214ZM518.474 182.082C518.474 182.958 518.216 183.66 517.7 184.188C517.196 184.704 516.542 185.052 515.738 185.232V185.286C516.77 185.418 517.55 185.742 518.078 186.258C518.606 186.774 518.87 187.452 518.87 188.292C518.87 189.036 518.69 189.702 518.33 190.29C517.97 190.878 517.412 191.34 516.656 191.676C515.912 192.012 514.952 192.18 513.776 192.18C513.068 192.18 512.414 192.12 511.814 192C511.226 191.892 510.668 191.718 510.14 191.478V189.48C510.68 189.756 511.256 189.966 511.868 190.11C512.48 190.254 513.056 190.326 513.596 190.326C514.64 190.326 515.378 190.14 515.81 189.768C516.242 189.384 516.458 188.856 516.458 188.184C516.458 187.548 516.206 187.074 515.702 186.762C515.198 186.45 514.358 186.294 513.182 186.294H512.102V184.476H513.2C514.34 184.476 515.126 184.29 515.558 183.918C515.99 183.546 516.206 183.066 516.206 182.478C516.206 181.962 516.038 181.56 515.702 181.272C515.366 180.984 514.862 180.84 514.19 180.84C513.542 180.84 512.984 180.948 512.516 181.164C512.048 181.368 511.628 181.59 511.256 181.83L510.176 180.264C510.668 179.904 511.25 179.598 511.922 179.346C512.594 179.094 513.386 178.968 514.298 178.968C515.63 178.968 516.656 179.25 517.376 179.814C518.108 180.378 518.474 181.134 518.474 182.082ZM529.243 184.638C529.243 185.37 529.189 186.102 529.081 186.834C528.973 187.554 528.787 188.238 528.523 188.886C528.259 189.522 527.893 190.092 527.425 190.596C526.957 191.088 526.357 191.478 525.625 191.766C524.905 192.042 524.029 192.18 522.997 192.18C522.757 192.18 522.469 192.168 522.133 192.144C521.797 192.12 521.527 192.084 521.323 192.036V190.164C521.791 190.296 522.307 190.362 522.871 190.362C523.951 190.362 524.791 190.17 525.391 189.786C525.991 189.39 526.411 188.856 526.651 188.184C526.903 187.512 527.047 186.756 527.083 185.916H526.975C526.711 186.324 526.357 186.678 525.913 186.978C525.469 187.266 524.845 187.41 524.041 187.41C522.949 187.41 522.067 187.062 521.395 186.366C520.735 185.67 520.405 184.686 520.405 183.414C520.405 182.034 520.789 180.954 521.557 180.174C522.325 179.382 523.363 178.986 524.671 178.986C525.523 178.986 526.291 179.19 526.975 179.598C527.671 180.006 528.223 180.63 528.631 181.47C529.039 182.298 529.243 183.354 529.243 184.638ZM524.707 180.858C524.095 180.858 523.597 181.062 523.213 181.47C522.829 181.878 522.637 182.514 522.637 183.378C522.637 184.086 522.799 184.644 523.123 185.052C523.459 185.448 523.969 185.646 524.653 185.646C525.121 185.646 525.529 185.55 525.877 185.358C526.225 185.154 526.489 184.896 526.669 184.584C526.861 184.272 526.957 183.954 526.957 183.63C526.957 183.186 526.873 182.754 526.705 182.334C526.537 181.914 526.285 181.566 525.949 181.29C525.625 181.002 525.211 180.858 524.707 180.858Z" fill="white"/>
<path d="M373.936 197.084H372.064V200H370.534V197.084H364.378V195.734L370.426 187.076H372.064V195.662H373.936V197.084ZM370.534 195.662V191.612C370.534 190.988 370.54 190.46 370.552 190.028C370.576 189.584 370.6 189.164 370.624 188.768H370.552C370.456 188.996 370.336 189.242 370.192 189.506C370.048 189.77 369.91 189.992 369.778 190.172L365.926 195.662H370.534ZM383.715 193.556C383.715 194.948 383.571 196.136 383.283 197.12C382.995 198.104 382.533 198.86 381.897 199.388C381.273 199.916 380.451 200.18 379.431 200.18C377.979 200.18 376.905 199.598 376.209 198.434C375.525 197.258 375.183 195.632 375.183 193.556C375.183 192.164 375.321 190.976 375.597 189.992C375.885 189.008 376.341 188.258 376.965 187.742C377.589 187.214 378.411 186.95 379.431 186.95C380.871 186.95 381.945 187.532 382.653 188.696C383.361 189.848 383.715 191.468 383.715 193.556ZM376.767 193.556C376.767 195.32 376.965 196.64 377.361 197.516C377.769 198.392 378.459 198.83 379.431 198.83C380.391 198.83 381.075 198.398 381.483 197.534C381.903 196.658 382.113 195.332 382.113 193.556C382.113 191.804 381.903 190.49 381.483 189.614C381.075 188.738 380.391 188.3 379.431 188.3C378.459 188.3 377.769 188.738 377.361 189.614C376.965 190.49 376.767 191.804 376.767 193.556ZM385.322 195.878V194.474H389.678V195.878H385.322ZM400.338 197.084H398.466V200H396.936V197.084H390.78V195.734L396.828 187.076H398.466V195.662H400.338V197.084ZM396.936 195.662V191.612C396.936 190.988 396.942 190.46 396.954 190.028C396.978 189.584 397.002 189.164 397.026 188.768H396.954C396.858 188.996 396.738 189.242 396.594 189.506C396.45 189.77 396.312 189.992 396.18 190.172L392.328 195.662H396.936ZM410.063 192.638C410.063 193.562 409.979 194.474 409.811 195.374C409.655 196.262 409.361 197.072 408.929 197.804C408.509 198.524 407.909 199.1 407.129 199.532C406.361 199.964 405.371 200.18 404.159 200.18C403.919 200.18 403.637 200.162 403.313 200.126C402.989 200.102 402.731 200.06 402.539 200V198.65C403.007 198.806 403.535 198.884 404.123 198.884C404.963 198.884 405.653 198.746 406.193 198.47C406.745 198.194 407.183 197.822 407.507 197.354C407.831 196.874 408.065 196.322 408.209 195.698C408.353 195.062 408.437 194.396 408.461 193.7H408.353C408.077 194.108 407.693 194.462 407.201 194.762C406.709 195.05 406.073 195.194 405.293 195.194C404.189 195.194 403.295 194.858 402.611 194.186C401.939 193.502 401.603 192.542 401.603 191.306C401.603 190.406 401.771 189.632 402.107 188.984C402.443 188.336 402.917 187.838 403.529 187.49C404.153 187.142 404.879 186.968 405.707 186.968C406.523 186.968 407.261 187.178 407.921 187.598C408.581 188.006 409.103 188.63 409.487 189.47C409.871 190.298 410.063 191.354 410.063 192.638ZM405.707 188.3C404.963 188.3 404.351 188.546 403.871 189.038C403.403 189.53 403.169 190.28 403.169 191.288C403.169 192.116 403.367 192.77 403.763 193.25C404.171 193.718 404.795 193.952 405.635 193.952C406.211 193.952 406.709 193.838 407.129 193.61C407.549 193.37 407.873 193.07 408.101 192.71C408.341 192.35 408.461 191.978 408.461 191.594C408.461 191.078 408.359 190.568 408.155 190.064C407.951 189.56 407.645 189.14 407.237 188.804C406.829 188.468 406.319 188.3 405.707 188.3Z" fill="#5F6D8B"/>
<path d="M424.26 134.75C424.62 135.86 425.82 139.7 426.06 140.78C426.24 141.59 426 141.89 425.16 141.89H424.38C424.2 141.89 424.14 141.95 424.14 142.13V142.73C424.14 142.91 424.2 143.09 424.44 143.09C425.1 143.09 426.12 143 428.64 143C431.94 143 432.54 143.09 433.08 143.09C433.32 143.09 433.38 142.91 433.38 142.73V142.1C433.38 141.95 433.32 141.89 433.14 141.89H432.18C431.58 141.89 430.8 141.53 430.26 140.51C429.84 139.7 427.92 134.12 427.2 131.78C426.66 129.86 424.32 123.14 423.78 121.28C423.72 121.1 423.6 120.74 423.42 120.74C423.27 120.74 423.15 120.86 422.97 121.04C422.61 121.4 420.96 122.3 420 122.54C419.76 122.6 419.7 122.72 419.7 122.84C419.7 122.93 419.79 123.11 419.88 123.2C420.06 123.38 419.88 123.92 419.82 124.22C419.52 125 417.09 131.48 416.88 132.08C415.98 134.6 413.82 140 413.52 140.54C412.98 141.47 412.44 141.89 411.6 141.89H410.7C410.58 141.89 410.52 141.95 410.52 142.13V142.7C410.52 142.91 410.52 143.09 410.7 143.09C411.12 143.09 411.78 143 414 143C416.1 143 417.36 143.09 417.78 143.09C417.96 143.09 418.02 142.97 418.02 142.79V142.04C418.02 141.95 417.96 141.89 417.72 141.89H416.46C415.86 141.89 415.38 141.56 415.38 141.17C415.38 141.02 415.38 140.78 415.44 140.54C415.59 139.73 417.06 135.44 417.3 134.75H424.26ZM417.72 133.55C417.93 132.86 420.63 125.48 420.75 125.09C420.84 124.82 420.96 124.7 421.14 124.7C421.26 124.7 421.32 124.88 421.44 125.24C421.62 125.84 423.66 132.68 423.96 133.55H417.72ZM439.804 151.16C442.624 151.22 444.724 150.26 445.684 149.48C447.004 148.46 447.544 147.32 447.544 146C447.544 145.1 447.244 143.96 446.044 143.06C444.724 141.98 443.224 141.8 440.944 141.92C438.304 142.04 437.164 142.04 437.164 140.84C437.164 140.12 437.914 139.58 438.454 139.34C439.084 139.46 439.504 139.46 440.164 139.46C441.574 139.46 443.014 139.1 443.974 138.08C444.874 137.12 445.234 135.92 445.234 134.75C445.234 133.79 445.054 133.13 444.874 132.77C445.114 132.59 445.414 132.59 445.594 132.59C445.834 132.59 446.074 132.77 446.314 132.95C446.494 133.13 446.794 133.37 447.244 133.37C447.904 133.37 448.444 132.77 448.444 132.17C448.504 131.39 447.994 130.73 446.884 130.73C446.104 130.73 445.054 131.27 444.334 131.84C444.034 131.51 442.834 130.13 440.254 130.13C436.384 130.13 434.704 132.53 434.704 134.51C434.704 137.06 436.144 138.32 437.284 138.98V139.04C436.384 139.46 434.704 140.48 434.704 142.1C434.704 143.06 435.424 144.02 436.744 144.32V144.5C435.304 145.1 433.624 146.24 433.624 147.86C433.624 148.82 434.044 149.6 435.124 150.23C436.444 150.98 438.364 151.16 439.804 151.16ZM440.164 138.41C439.324 138.41 438.874 138.17 438.454 137.75C437.944 137.3 437.704 136.34 437.704 135.38C437.704 134.21 437.884 132.83 438.544 131.99C438.994 131.45 439.534 131.24 440.164 131.24C440.884 131.24 441.304 131.51 441.574 131.84C441.874 132.23 442.234 133.01 442.234 134.21C442.234 136.34 441.724 138.41 440.164 138.41ZM440.824 144.62C443.704 144.5 444.964 145.58 444.964 147.32C445.024 149.09 442.444 149.99 440.884 149.99C439.144 149.99 438.304 149.81 437.374 149.27C436.804 148.94 436.294 148.04 436.294 147.2C436.294 146 437.284 145.04 438.124 144.8L440.824 144.62ZM452.082 135.41H459.342C459.882 135.41 460.182 135.38 460.182 134.93C460.182 133.7 459.072 130.13 455.652 130.13C453.042 130.13 451.692 130.73 450.432 132.35C449.142 134.03 448.962 135.14 448.962 136.79C448.962 138.65 449.262 140.15 450.642 141.74C451.692 142.94 453.042 143.36 454.962 143.36C458.262 143.36 459.792 141.32 460.422 140.18C460.632 139.79 460.572 139.67 460.422 139.58L459.972 139.31C459.852 139.25 459.732 139.25 459.612 139.46C458.982 140.42 457.842 141.2 455.982 141.2C454.272 141.2 452.082 139.4 452.082 136.34V135.41ZM452.172 134.33C452.562 132.32 453.462 131.24 454.932 131.24C456.492 131.24 456.792 133.01 456.792 133.91C456.792 134.15 456.432 134.33 455.802 134.33H452.172Z" fill="#5F6D8B"/>
</svg>
